<?xml version="1.0" encoding="UTF-8"?>
<svg xmlns="http://www.w3.org/2000/svg" xmlns:xlink="http://www.w3.org/1999/xlink" width="375pt" height="374.999991pt" viewBox="0 0 375 374.999991" version="1.2">
<defs>
<clipPath id="clip1">
  <path d="M 181 332 L 194 332 L 194 368.652344 L 181 368.652344 Z M 181 332 "/>
</clipPath>
<clipPath id="clip2">
  <path d="M 181 5.652344 L 194 5.652344 L 194 42 L 181 42 Z M 181 5.652344 "/>
</clipPath>
<clipPath id="clip3">
  <path d="M 332 181 L 368.652344 181 L 368.652344 194 L 332 194 Z M 332 181 "/>
</clipPath>
<clipPath id="clip4">
  <path d="M 5.652344 181 L 42 181 L 42 194 L 5.652344 194 Z M 5.652344 181 "/>
</clipPath>
</defs>
<g id="surface1">
<path style=" stroke:none;fill-rule:nonzero;fill:rgb(97.648621%,68.238831%,10.978699%);fill-opacity:1;" d="M 302.378906 187.320312 C 302.378906 250.859375 250.859375 302.378906 187.320312 302.378906 C 123.785156 302.378906 72.261719 250.859375 72.261719 187.320312 C 72.261719 123.785156 123.785156 72.261719 187.320312 72.261719 C 250.859375 72.261719 302.378906 123.785156 302.378906 187.320312 "/>
<path style=" stroke:none;fill-rule:nonzero;fill:rgb(96.859741%,58.039856%,7.839966%);fill-opacity:1;" d="M 241.089844 85.628906 C 256.675781 106.398438 266.042969 132.109375 266.042969 160.070312 C 266.042969 228.644531 210.457031 284.210938 141.902344 284.210938 C 135.398438 284.210938 129.058594 283.574219 122.8125 282.578125 C 141.21875 295.070312 163.40625 302.378906 187.320312 302.378906 C 250.859375 302.378906 302.378906 250.859375 302.378906 187.320312 C 302.378906 143.203125 277.515625 104.929688 241.089844 85.628906 "/>
<g clip-path="url(#clip1)" clip-rule="nonzero">
<path style=" stroke:none;fill-rule:nonzero;fill:rgb(98.039246%,81.17981%,42.349243%);fill-opacity:1;" d="M 193.375 368.992188 L 181.265625 368.992188 L 181.265625 332.65625 L 193.375 332.65625 L 193.375 368.992188 "/>
</g>
<g clip-path="url(#clip2)" clip-rule="nonzero">
<path style=" stroke:none;fill-rule:nonzero;fill:rgb(98.039246%,81.17981%,42.349243%);fill-opacity:1;" d="M 193.375 41.984375 L 181.265625 41.984375 L 181.265625 5.652344 L 193.375 5.652344 L 193.375 41.984375 "/>
</g>
<path style=" stroke:none;fill-rule:nonzero;fill:rgb(98.039246%,81.17981%,42.349243%);fill-opacity:1;" d="M 272.90625 347.675781 L 254.738281 316.214844 L 265.238281 310.160156 L 283.40625 341.621094 L 272.90625 347.675781 "/>
<path style=" stroke:none;fill-rule:nonzero;fill:rgb(98.039246%,81.17981%,42.349243%);fill-opacity:1;" d="M 109.402344 64.480469 L 91.234375 33.019531 L 101.738281 26.964844 L 119.902344 58.425781 L 109.402344 64.480469 "/>
<path style=" stroke:none;fill-rule:nonzero;fill:rgb(98.039246%,81.17981%,42.349243%);fill-opacity:1;" d="M 341.621094 283.40625 L 310.160156 265.238281 L 316.214844 254.738281 L 347.675781 272.90625 L 341.621094 283.40625 "/>
<path style=" stroke:none;fill-rule:nonzero;fill:rgb(98.039246%,81.17981%,42.349243%);fill-opacity:1;" d="M 58.425781 119.902344 L 26.964844 101.738281 L 33.019531 91.234375 L 64.480469 109.402344 L 58.425781 119.902344 "/>
<g clip-path="url(#clip3)" clip-rule="nonzero">
<path style=" stroke:none;fill-rule:nonzero;fill:rgb(98.039246%,81.17981%,42.349243%);fill-opacity:1;" d="M 368.992188 193.375 L 332.65625 193.375 L 332.65625 181.265625 L 368.992188 181.265625 L 368.992188 193.375 "/>
</g>
<g clip-path="url(#clip4)" clip-rule="nonzero">
<path style=" stroke:none;fill-rule:nonzero;fill:rgb(98.039246%,81.17981%,42.349243%);fill-opacity:1;" d="M 41.984375 193.375 L 5.652344 193.375 L 5.652344 181.265625 L 41.984375 181.265625 L 41.984375 193.375 "/>
</g>
<path style=" stroke:none;fill-rule:nonzero;fill:rgb(98.039246%,81.17981%,42.349243%);fill-opacity:1;" d="M 316.214844 119.902344 L 310.160156 109.402344 L 341.621094 91.234375 L 347.675781 101.738281 L 316.214844 119.902344 "/>
<path style=" stroke:none;fill-rule:nonzero;fill:rgb(98.039246%,81.17981%,42.349243%);fill-opacity:1;" d="M 33.019531 283.40625 L 26.964844 272.90625 L 58.425781 254.738281 L 64.480469 265.238281 L 33.019531 283.40625 "/>
<path style=" stroke:none;fill-rule:nonzero;fill:rgb(98.039246%,81.17981%,42.349243%);fill-opacity:1;" d="M 265.238281 64.480469 L 254.738281 58.425781 L 272.90625 26.964844 L 283.40625 33.019531 L 265.238281 64.480469 "/>
<path style=" stroke:none;fill-rule:nonzero;fill:rgb(98.039246%,81.17981%,42.349243%);fill-opacity:1;" d="M 101.738281 347.675781 L 91.234375 341.621094 L 109.402344 310.160156 L 119.902344 316.214844 L 101.738281 347.675781 "/>
</g>
</svg>
