<?xml version="1.0" encoding="UTF-8"?>
<svg xmlns="http://www.w3.org/2000/svg" xmlns:xlink="http://www.w3.org/1999/xlink" width="375pt" height="299.999988pt" viewBox="0 0 375 299.999988" version="1.2">
<defs>
<clipPath id="clip1">
  <path d="M 8.472656 6.777344 L 363.222656 6.777344 L 363.222656 196 L 8.472656 196 Z M 8.472656 6.777344 "/>
</clipPath>
<clipPath id="clip2">
  <path d="M 8.472656 101 L 363.222656 101 L 363.222656 290.066406 L 8.472656 290.066406 Z M 8.472656 101 "/>
</clipPath>
<clipPath id="clip3">
  <path d="M 10 199 L 363.222656 199 L 363.222656 290.066406 L 10 290.066406 Z M 10 199 "/>
</clipPath>
</defs>
<g id="surface1">
<g clip-path="url(#clip1)" clip-rule="nonzero">
<path style=" stroke:none;fill-rule:nonzero;fill:rgb(86.268616%,86.268616%,85.488892%);fill-opacity:1;" d="M 296.027344 59.894531 C 287.640625 29.261719 251.257812 6.777344 210.371094 6.777344 C 169.972656 6.777344 139.746094 29.804688 130.839844 59.894531 C 106.011719 60.210938 82.621094 71.289062 75.777344 89.402344 C 73.902344 89.265625 71.570312 89.402344 69.660156 89.402344 C 35.175781 89.402344 8.472656 113.542969 8.472656 142.519531 C 8.472656 171.496094 35.175781 195.636719 69.65625 195.636719 L 283.789062 195.636719 C 327.621094 194.191406 363.324219 161.554688 363.324219 124.8125 C 363.324219 91.230469 334.503906 65.558594 296.027344 59.894531 Z M 296.027344 59.894531 "/>
</g>
<g clip-path="url(#clip2)" clip-rule="nonzero">
<path style=" stroke:none;fill-rule:nonzero;fill:rgb(78.819275%,78.819275%,75.289917%);fill-opacity:1;" d="M 296.027344 154.324219 C 287.640625 123.691406 251.257812 101.207031 210.371094 101.207031 C 169.972656 101.207031 139.746094 124.234375 130.839844 154.324219 C 106.011719 154.640625 82.621094 165.71875 75.777344 183.832031 C 73.902344 183.695312 71.570312 183.832031 69.660156 183.832031 C 35.175781 183.832031 8.472656 207.972656 8.472656 236.949219 C 8.472656 265.925781 35.175781 290.066406 69.65625 290.066406 L 283.789062 290.066406 C 327.621094 288.621094 363.324219 255.984375 363.324219 219.242188 C 363.324219 185.664062 334.503906 159.988281 296.027344 154.324219 Z M 296.027344 154.324219 "/>
</g>
<g clip-path="url(#clip3)" clip-rule="nonzero">
<path style=" stroke:none;fill-rule:nonzero;fill:rgb(67.059326%,68.238831%,65.489197%);fill-opacity:1;" d="M 359.863281 199.878906 C 356.132812 233.980469 326.242188 260.558594 289.90625 260.558594 L 45.183594 260.558594 C 32.761719 260.558594 21.113281 257.421875 10.980469 251.976562 C 18.351562 273.8125 41.367188 290.066406 69.65625 290.066406 L 283.789062 290.066406 C 327.621094 288.621094 363.324219 255.984375 363.324219 219.242188 C 363.324219 212.421875 362.082031 205.945312 359.863281 199.878906 Z M 359.863281 199.878906 "/>
</g>
</g>
</svg>
