<?xml version="1.0" encoding="UTF-8"?>
<svg xmlns="http://www.w3.org/2000/svg" xmlns:xlink="http://www.w3.org/1999/xlink" width="375pt" height="374.999991pt" viewBox="0 0 375 374.999991" version="1.2">
<defs>
<clipPath id="clip1">
  <path d="M 15.515625 15.515625 L 358.851562 15.515625 L 358.851562 240 L 15.515625 240 Z M 15.515625 15.515625 "/>
</clipPath>
<clipPath id="clip2">
  <path d="M 53 15.515625 L 358.851562 15.515625 L 358.851562 234 L 53 234 Z M 53 15.515625 "/>
</clipPath>
<clipPath id="clip3">
  <path d="M 127 314 L 158 314 L 158 358.851562 L 127 358.851562 Z M 127 314 "/>
</clipPath>
<clipPath id="clip4">
  <path d="M 127 338 L 158 338 L 158 358.851562 L 127 358.851562 Z M 127 338 "/>
</clipPath>
</defs>
<g id="surface1">
<g clip-path="url(#clip1)" clip-rule="nonzero">
<path style=" stroke:none;fill-rule:nonzero;fill:rgb(74.508667%,76.469421%,82.348633%);fill-opacity:1;" d="M 52.832031 97.617188 C 52.832031 96.773438 52.832031 98.464844 52.832031 97.617188 C 52.832031 96.273438 52.867188 94.929688 52.933594 93.585938 C 52.996094 92.246094 53.097656 90.90625 53.226562 89.570312 C 53.359375 88.230469 53.523438 86.898438 53.722656 85.570312 C 53.917969 84.238281 54.148438 82.917969 54.410156 81.597656 C 54.671875 80.28125 54.96875 78.96875 55.292969 77.667969 C 55.621094 76.363281 55.976562 75.070312 56.367188 73.78125 C 56.757812 72.496094 57.179688 71.222656 57.632812 69.957031 C 58.085938 68.691406 58.566406 67.4375 59.082031 66.195312 C 59.597656 64.957031 60.140625 63.726562 60.714844 62.511719 C 61.289062 61.296875 61.894531 60.097656 62.527344 58.914062 C 63.160156 57.726562 63.824219 56.558594 64.511719 55.40625 C 65.203125 54.253906 65.921875 53.121094 66.667969 52.003906 C 67.417969 50.886719 68.191406 49.785156 68.988281 48.707031 C 69.789062 47.628906 70.617188 46.570312 71.46875 45.53125 C 72.320312 44.492188 73.199219 43.476562 74.101562 42.480469 C 75.003906 41.484375 75.929688 40.511719 76.878906 39.5625 C 77.832031 38.609375 78.804688 37.683594 79.796875 36.78125 C 80.792969 35.878906 81.8125 35.003906 82.851562 34.148438 C 83.886719 33.296875 84.949219 32.472656 86.027344 31.671875 C 87.105469 30.871094 88.203125 30.097656 89.320312 29.351562 C 90.4375 28.605469 91.574219 27.886719 92.726562 27.195312 C 93.878906 26.503906 95.046875 25.839844 96.230469 25.207031 C 97.417969 24.574219 98.617188 23.972656 99.832031 23.394531 C 101.046875 22.820312 102.273438 22.277344 103.515625 21.761719 C 104.757812 21.25 106.011719 20.765625 107.277344 20.3125 C 108.539062 19.859375 109.816406 19.4375 111.101562 19.050781 C 112.386719 18.660156 113.683594 18.300781 114.984375 17.972656 C 116.289062 17.648438 117.601562 17.351562 118.917969 17.089844 C 120.234375 16.828125 121.558594 16.597656 122.886719 16.402344 C 124.21875 16.207031 125.550781 16.039062 126.886719 15.910156 C 128.226562 15.777344 129.5625 15.679688 130.90625 15.613281 C 132.25 15.546875 133.589844 15.515625 134.933594 15.515625 C 138.734375 15.601562 142.511719 15.929688 146.265625 16.507812 C 150.019531 17.082031 153.722656 17.898438 157.371094 18.957031 C 161.023438 20.011719 164.589844 21.296875 168.070312 22.816406 C 171.554688 24.332031 174.925781 26.070312 178.183594 28.023438 C 181.441406 29.980469 184.558594 32.136719 187.535156 34.496094 C 190.515625 36.855469 193.328125 39.394531 195.976562 42.117188 C 198.625 44.839844 201.089844 47.722656 203.363281 50.765625 C 205.640625 53.808594 207.710938 56.984375 209.574219 60.296875 C 217.164062 56.796875 224.5 45.367188 254.355469 45.367188 C 282.769531 45.367188 308.035156 71.023438 314.066406 97.617188 C 337.203125 110.304688 358.851562 136.539062 358.851562 164.789062 C 358.851562 166.011719 358.820312 167.234375 358.761719 168.453125 C 358.699219 169.671875 358.609375 170.890625 358.492188 172.105469 C 358.371094 173.320312 358.222656 174.535156 358.042969 175.742188 C 357.863281 176.949219 357.652344 178.152344 357.414062 179.351562 C 357.175781 180.550781 356.910156 181.742188 356.613281 182.925781 C 356.316406 184.109375 355.992188 185.289062 355.636719 186.457031 C 355.28125 187.625 354.898438 188.785156 354.488281 189.933594 C 354.074219 191.085938 353.636719 192.222656 353.167969 193.351562 C 352.699219 194.480469 352.207031 195.597656 351.683594 196.703125 C 351.160156 197.804688 350.613281 198.898438 350.035156 199.972656 C 349.460938 201.050781 348.859375 202.113281 348.230469 203.160156 C 347.601562 204.210938 346.949219 205.242188 346.269531 206.257812 C 345.59375 207.273438 344.890625 208.269531 344.160156 209.253906 C 343.433594 210.234375 342.683594 211.195312 341.90625 212.140625 C 341.132812 213.085938 340.335938 214.007812 339.515625 214.914062 C 338.695312 215.820312 337.851562 216.703125 336.988281 217.566406 C 336.125 218.429688 335.242188 219.273438 334.335938 220.09375 C 333.429688 220.914062 332.503906 221.710938 331.5625 222.488281 C 330.617188 223.261719 329.65625 224.011719 328.671875 224.742188 C 327.691406 225.46875 326.695312 226.171875 325.679688 226.851562 C 324.664062 227.527344 323.632812 228.179688 322.582031 228.808594 C 321.535156 229.4375 320.472656 230.039062 319.394531 230.617188 C 318.320312 231.191406 317.226562 231.738281 316.125 232.261719 C 315.019531 232.785156 313.902344 233.28125 312.773438 233.746094 C 311.644531 234.214844 310.507812 234.652344 309.355469 235.066406 C 308.207031 235.476562 307.046875 235.859375 305.878906 236.214844 C 304.707031 236.570312 303.53125 236.894531 302.347656 237.191406 C 301.164062 237.488281 299.96875 237.757812 298.773438 237.996094 C 297.574219 238.234375 296.371094 238.441406 295.164062 238.621094 C 293.953125 238.800781 292.742188 238.949219 291.527344 239.070312 C 290.3125 239.1875 289.09375 239.277344 287.875 239.339844 C 286.652344 239.398438 285.433594 239.429688 284.210938 239.429688 L 90.152344 239.429688 C 88.929688 239.429688 87.710938 239.398438 86.488281 239.339844 C 85.269531 239.277344 84.050781 239.1875 82.835938 239.070312 C 81.621094 238.949219 80.410156 238.800781 79.199219 238.621094 C 77.992188 238.441406 76.789062 238.234375 75.589844 237.996094 C 74.394531 237.757812 73.203125 237.488281 72.015625 237.191406 C 70.832031 236.894531 69.65625 236.570312 68.484375 236.214844 C 67.316406 235.859375 66.15625 235.476562 65.007812 235.066406 C 63.855469 234.652344 62.71875 234.214844 61.589844 233.746094 C 60.460938 233.28125 59.34375 232.785156 58.238281 232.261719 C 57.136719 231.738281 56.046875 231.191406 54.96875 230.617188 C 53.890625 230.039062 52.828125 229.4375 51.78125 228.808594 C 50.734375 228.179688 49.699219 227.527344 48.683594 226.851562 C 47.667969 226.171875 46.671875 225.46875 45.691406 224.738281 C 44.707031 224.011719 43.746094 223.261719 42.800781 222.488281 C 41.859375 221.710938 40.933594 220.914062 40.027344 220.09375 C 39.121094 219.273438 38.238281 218.429688 37.375 217.566406 C 36.511719 216.703125 35.667969 215.820312 34.847656 214.914062 C 34.027344 214.007812 33.230469 213.085938 32.457031 212.140625 C 31.679688 211.195312 30.929688 210.234375 30.203125 209.253906 C 29.472656 208.269531 28.769531 207.273438 28.09375 206.257812 C 27.414062 205.242188 26.761719 204.210938 26.132812 203.160156 C 25.503906 202.113281 24.902344 201.050781 24.328125 199.972656 C 23.75 198.898438 23.203125 197.804688 22.679688 196.703125 C 22.15625 195.597656 21.664062 194.480469 21.195312 193.351562 C 20.726562 192.222656 20.289062 191.085938 19.875 189.933594 C 19.464844 188.785156 19.082031 187.625 18.726562 186.457031 C 18.371094 185.289062 18.046875 184.109375 17.75 182.925781 C 17.453125 181.742188 17.1875 180.550781 16.949219 179.351562 C 16.710938 178.152344 16.5 176.949219 16.320312 175.742188 C 16.140625 174.535156 15.992188 173.320312 15.875 172.105469 C 15.753906 170.890625 15.664062 169.671875 15.605469 168.453125 C 15.542969 167.234375 15.515625 166.011719 15.515625 164.789062 C 15.503906 161.441406 15.703125 158.105469 16.121094 154.78125 C 16.535156 151.457031 17.160156 148.171875 17.996094 144.925781 C 18.828125 141.683594 19.867188 138.503906 21.109375 135.394531 C 22.351562 132.28125 23.785156 129.261719 25.410156 126.335938 C 27.039062 123.40625 28.84375 120.59375 30.828125 117.894531 C 32.816406 115.199219 34.964844 112.640625 37.277344 110.214844 C 39.59375 107.792969 42.050781 105.527344 44.652344 103.417969 C 47.257812 101.308594 49.984375 99.375 52.832031 97.617188 Z M 52.832031 97.617188 "/>
</g>
<g clip-path="url(#clip2)" clip-rule="nonzero">
<path style=" stroke:none;fill-rule:nonzero;fill:rgb(86.268616%,88.238525%,92.158508%);fill-opacity:1;" d="M 358.851562 164.789062 C 358.851562 136.578125 337.203125 110.304688 314.066406 97.617188 C 313.183594 94.039062 312.03125 90.550781 310.613281 87.148438 C 309.195312 83.75 307.527344 80.476562 305.609375 77.328125 C 303.691406 74.183594 301.546875 71.203125 299.171875 68.382812 C 296.800781 65.566406 294.226562 62.945312 291.453125 60.519531 C 288.941406 58.195312 286.246094 56.113281 283.359375 54.273438 C 280.476562 52.433594 277.449219 50.867188 274.28125 49.574219 C 271.113281 48.277344 267.855469 47.277344 264.507812 46.574219 C 261.160156 45.867188 257.777344 45.464844 254.355469 45.367188 C 248.976562 45.132812 243.644531 45.554688 238.367188 46.625 C 233.089844 47.699219 228.019531 49.394531 223.15625 51.714844 C 216.960938 54.921875 213.304688 58.578125 209.574219 60.296875 C 207.710938 56.984375 205.640625 53.808594 203.363281 50.765625 C 201.089844 47.722656 198.625 44.839844 195.976562 42.117188 C 193.328125 39.394531 190.515625 36.855469 187.535156 34.496094 C 184.558594 32.136719 181.441406 29.980469 178.183594 28.023438 C 174.925781 26.070312 171.554688 24.332031 168.070312 22.816406 C 164.589844 21.296875 161.023438 20.011719 157.371094 18.957031 C 153.722656 17.898438 150.019531 17.082031 146.265625 16.507812 C 142.511719 15.929688 138.734375 15.601562 134.933594 15.515625 C 133.65625 15.511719 132.375 15.542969 131.097656 15.601562 C 129.816406 15.664062 128.542969 15.753906 127.265625 15.871094 C 125.992188 15.992188 124.722656 16.140625 123.453125 16.320312 C 122.1875 16.5 120.925781 16.707031 119.667969 16.945312 C 118.410156 17.183594 117.15625 17.449219 115.914062 17.746094 C 114.667969 18.042969 113.429688 18.371094 112.199219 18.722656 C 110.96875 19.078125 109.75 19.460938 108.535156 19.875 C 107.324219 20.285156 106.125 20.726562 104.933594 21.195312 C 103.742188 21.664062 102.5625 22.160156 101.390625 22.679688 C 100.222656 23.203125 99.070312 23.753906 97.925781 24.332031 C 96.785156 24.910156 95.65625 25.515625 94.542969 26.144531 C 93.429688 26.773438 92.328125 27.429688 91.246094 28.113281 C 90.164062 28.792969 89.09375 29.5 88.046875 30.234375 C 86.996094 30.964844 85.960938 31.722656 84.949219 32.5 C 83.933594 33.28125 82.9375 34.085938 81.960938 34.910156 C 80.980469 35.738281 80.023438 36.585938 79.085938 37.457031 C 78.148438 38.332031 77.234375 39.222656 76.335938 40.136719 C 75.441406 41.050781 74.570312 41.988281 73.714844 42.941406 C 72.863281 43.898438 72.035156 44.875 71.230469 45.867188 C 70.421875 46.863281 69.640625 47.875 68.882812 48.90625 C 68.125 49.9375 67.390625 50.984375 66.679688 52.050781 C 65.96875 53.113281 65.285156 54.195312 64.625 55.292969 C 63.96875 56.390625 63.335938 57.503906 62.726562 58.628906 C 62.121094 59.757812 61.539062 60.898438 60.988281 62.050781 C 60.433594 63.207031 59.90625 64.371094 59.40625 65.550781 C 58.910156 66.730469 58.4375 67.921875 57.996094 69.121094 C 57.550781 70.320312 57.136719 71.53125 56.75 72.753906 C 56.363281 73.972656 56.003906 75.203125 55.675781 76.4375 C 55.347656 77.675781 55.046875 78.917969 54.777344 80.171875 C 54.507812 81.421875 54.265625 82.679688 54.054688 83.941406 C 53.839844 85.203125 53.660156 86.46875 53.507812 87.742188 C 53.355469 89.011719 53.230469 90.285156 53.140625 91.5625 C 58.875 88.644531 64.871094 86.4375 71.125 84.9375 C 77.378906 83.4375 83.722656 82.6875 90.152344 82.6875 C 93.949219 82.773438 97.726562 83.105469 101.480469 83.683594 C 105.238281 84.257812 108.941406 85.074219 112.589844 86.128906 C 116.238281 87.1875 119.804688 88.472656 123.289062 89.992188 C 126.769531 91.507812 130.140625 93.246094 133.398438 95.199219 C 136.65625 97.152344 139.773438 99.3125 142.753906 101.667969 C 145.730469 104.027344 148.546875 106.570312 151.195312 109.292969 C 153.84375 112.015625 156.304688 114.898438 158.582031 117.941406 C 160.855469 120.984375 162.925781 124.160156 164.789062 127.472656 C 168.523438 125.753906 172.179688 122.097656 178.375 118.886719 C 183.238281 116.570312 188.304688 114.875 193.585938 113.800781 C 198.863281 112.726562 204.191406 112.308594 209.574219 112.542969 C 212.992188 112.640625 216.378906 113.039062 219.726562 113.746094 C 223.074219 114.453125 226.332031 115.453125 229.5 116.746094 C 232.664062 118.039062 235.691406 119.605469 238.578125 121.445312 C 241.460938 123.285156 244.160156 125.367188 246.667969 127.695312 C 249.441406 130.121094 252.015625 132.742188 254.390625 135.558594 C 256.761719 138.375 258.910156 141.359375 260.828125 144.503906 C 262.746094 147.648438 264.414062 150.921875 265.832031 154.324219 C 267.25 157.726562 268.398438 161.214844 269.285156 164.789062 C 292.421875 177.480469 314.066406 203.75 314.066406 231.964844 C 314.066406 232.382812 314.015625 232.785156 314.007812 233.195312 C 315.660156 232.476562 317.289062 231.695312 318.886719 230.859375 C 320.484375 230.019531 322.046875 229.125 323.582031 228.175781 C 325.113281 227.222656 326.609375 226.214844 328.070312 225.15625 C 329.53125 224.097656 330.949219 222.984375 332.328125 221.820312 C 333.707031 220.65625 335.042969 219.445312 336.335938 218.1875 C 337.625 216.925781 338.871094 215.621094 340.066406 214.269531 C 341.261719 212.921875 342.410156 211.53125 343.503906 210.097656 C 344.601562 208.664062 345.644531 207.191406 346.632812 205.683594 C 347.621094 204.175781 348.554688 202.632812 349.433594 201.054688 C 350.308594 199.476562 351.128906 197.871094 351.890625 196.234375 C 352.652344 194.601562 353.351562 192.9375 353.992188 191.25 C 354.632812 189.566406 355.210938 187.855469 355.726562 186.128906 C 356.242188 184.398438 356.695312 182.65625 357.085938 180.894531 C 357.476562 179.132812 357.800781 177.359375 358.0625 175.574219 C 358.324219 173.789062 358.519531 171.996094 358.652344 170.195312 C 358.78125 168.394531 358.847656 166.59375 358.851562 164.789062 Z M 358.851562 164.789062 "/>
</g>
<path style=" stroke:none;fill-rule:nonzero;fill:rgb(98.039246%,98.81897%,100%);fill-opacity:1;" d="M 275.59375 71.742188 C 276.386719 72.53125 277.117188 73.371094 277.78125 74.261719 C 278.449219 75.148438 279.039062 76.066406 279.550781 77.015625 C 280.066406 77.964844 280.496094 78.925781 280.839844 79.902344 C 281.179688 80.875 281.433594 81.84375 281.589844 82.808594 C 281.75 83.769531 281.8125 84.707031 281.777344 85.621094 C 281.746094 86.535156 281.617188 87.40625 281.394531 88.234375 C 281.171875 89.0625 280.859375 89.835938 280.457031 90.546875 C 280.054688 91.261719 279.570312 91.902344 279 92.46875 C 278.429688 93.039062 277.789062 93.527344 277.078125 93.929688 C 276.363281 94.332031 275.59375 94.648438 274.765625 94.871094 C 273.9375 95.09375 273.066406 95.21875 272.152344 95.253906 C 271.238281 95.289062 270.300781 95.226562 269.339844 95.066406 C 268.375 94.910156 267.40625 94.660156 266.433594 94.316406 C 265.457031 93.976562 264.496094 93.546875 263.546875 93.035156 C 262.597656 92.519531 261.675781 91.929688 260.789062 91.265625 C 259.898438 90.597656 259.058594 89.871094 258.265625 89.078125 C 257.476562 88.285156 256.746094 87.445312 256.078125 86.558594 C 255.414062 85.671875 254.824219 84.753906 254.308594 83.804688 C 253.792969 82.855469 253.363281 81.890625 253.023438 80.917969 C 252.679688 79.941406 252.429688 78.972656 252.269531 78.011719 C 252.113281 77.046875 252.050781 76.109375 252.082031 75.199219 C 252.113281 74.285156 252.242188 73.414062 252.464844 72.585938 C 252.6875 71.753906 253 70.984375 253.402344 70.273438 C 253.804688 69.558594 254.292969 68.917969 254.863281 68.347656 C 255.429688 67.78125 256.070312 67.292969 256.785156 66.890625 C 257.496094 66.484375 258.265625 66.171875 259.09375 65.949219 C 259.925781 65.726562 260.796875 65.597656 261.707031 65.566406 C 262.621094 65.53125 263.558594 65.59375 264.523438 65.75 C 265.484375 65.910156 266.453125 66.160156 267.429688 66.5 C 268.402344 66.84375 269.367188 67.269531 270.316406 67.785156 C 271.265625 68.296875 272.183594 68.886719 273.074219 69.554688 C 273.960938 70.21875 274.800781 70.949219 275.59375 71.742188 Z M 275.59375 71.742188 "/>
<path style=" stroke:none;fill-rule:nonzero;fill:rgb(98.039246%,98.81897%,100%);fill-opacity:1;" d="M 174.234375 46.296875 C 174.632812 46.695312 174.996094 47.117188 175.332031 47.5625 C 175.667969 48.007812 175.964844 48.46875 176.222656 48.945312 C 176.480469 49.425781 176.695312 49.90625 176.867188 50.398438 C 177.039062 50.886719 177.164062 51.371094 177.242188 51.855469 C 177.324219 52.339844 177.355469 52.8125 177.339844 53.269531 C 177.320312 53.726562 177.257812 54.164062 177.144531 54.582031 C 177.035156 55 176.875 55.386719 176.675781 55.742188 C 176.472656 56.101562 176.226562 56.425781 175.941406 56.710938 C 175.65625 56.996094 175.332031 57.242188 174.976562 57.445312 C 174.617188 57.644531 174.230469 57.804688 173.8125 57.914062 C 173.398438 58.027344 172.960938 58.09375 172.5 58.109375 C 172.042969 58.125 171.570312 58.09375 171.089844 58.015625 C 170.605469 57.9375 170.117188 57.8125 169.628906 57.640625 C 169.140625 57.46875 168.65625 57.253906 168.179688 56.996094 C 167.703125 56.738281 167.238281 56.441406 166.792969 56.105469 C 166.347656 55.773438 165.925781 55.40625 165.527344 55.007812 C 165.128906 54.613281 164.765625 54.191406 164.429688 53.742188 C 164.09375 53.296875 163.796875 52.835938 163.539062 52.359375 C 163.28125 51.882812 163.066406 51.398438 162.894531 50.910156 C 162.722656 50.421875 162.597656 49.933594 162.515625 49.449219 C 162.4375 48.96875 162.40625 48.496094 162.421875 48.039062 C 162.4375 47.578125 162.503906 47.140625 162.617188 46.722656 C 162.726562 46.308594 162.882812 45.921875 163.085938 45.5625 C 163.289062 45.203125 163.535156 44.882812 163.820312 44.597656 C 164.105469 44.3125 164.425781 44.066406 164.785156 43.863281 C 165.144531 43.660156 165.53125 43.503906 165.945312 43.390625 C 166.363281 43.277344 166.800781 43.214844 167.257812 43.199219 C 167.71875 43.179688 168.1875 43.210938 168.671875 43.289062 C 169.15625 43.371094 169.644531 43.496094 170.132812 43.667969 C 170.621094 43.839844 171.105469 44.054688 171.582031 44.3125 C 172.058594 44.570312 172.519531 44.867188 172.96875 45.199219 C 173.414062 45.535156 173.835938 45.898438 174.234375 46.296875 Z M 174.234375 46.296875 "/>
<path style=" stroke:none;fill-rule:nonzero;fill:rgb(98.039246%,98.81897%,100%);fill-opacity:1;" d="M 289.570312 89.527344 C 289.972656 89.925781 290.304688 90.371094 290.566406 90.851562 C 290.828125 91.332031 290.996094 91.816406 291.078125 92.304688 C 291.15625 92.792969 291.140625 93.25 291.027344 93.671875 C 290.914062 94.089844 290.710938 94.445312 290.421875 94.734375 C 290.132812 95.023438 289.78125 95.226562 289.359375 95.339844 C 288.9375 95.453125 288.484375 95.46875 287.996094 95.390625 C 287.507812 95.308594 287.023438 95.140625 286.539062 94.878906 C 286.058594 94.621094 285.617188 94.289062 285.214844 93.886719 C 284.8125 93.484375 284.480469 93.042969 284.21875 92.5625 C 283.960938 92.082031 283.789062 91.59375 283.710938 91.105469 C 283.628906 90.617188 283.644531 90.164062 283.757812 89.742188 C 283.871094 89.324219 284.074219 88.96875 284.363281 88.679688 C 284.652344 88.390625 285.007812 88.1875 285.425781 88.074219 C 285.847656 87.960938 286.300781 87.945312 286.792969 88.023438 C 287.28125 88.101562 287.765625 88.273438 288.246094 88.535156 C 288.726562 88.792969 289.171875 89.125 289.570312 89.527344 Z M 289.570312 89.527344 "/>
<path style=" stroke:none;fill-rule:nonzero;fill:rgb(19.219971%,76.858521%,100%);fill-opacity:1;" d="M 202.109375 245.027344 C 202.167969 246.066406 202.121094 247.101562 201.976562 248.136719 C 201.832031 249.167969 201.585938 250.175781 201.242188 251.160156 C 200.902344 252.144531 200.464844 253.085938 199.9375 253.984375 C 199.410156 254.882812 198.800781 255.722656 198.105469 256.5 C 197.414062 257.277344 196.652344 257.984375 195.824219 258.613281 C 194.992188 259.242188 194.109375 259.785156 193.171875 260.242188 C 192.234375 260.699219 191.261719 261.058594 190.253906 261.324219 C 189.246094 261.589844 188.222656 261.753906 187.183594 261.820312 C 186.140625 261.753906 185.117188 261.589844 184.109375 261.324219 C 183.101562 261.058594 182.128906 260.699219 181.191406 260.242188 C 180.253906 259.785156 179.371094 259.242188 178.542969 258.613281 C 177.710938 257.984375 176.949219 257.277344 176.257812 256.5 C 175.5625 255.722656 174.953125 254.882812 174.425781 253.984375 C 173.898438 253.085938 173.460938 252.144531 173.121094 251.160156 C 172.777344 250.175781 172.53125 249.167969 172.386719 248.136719 C 172.242188 247.101562 172.195312 246.066406 172.253906 245.027344 C 172.253906 235.75 187.183594 217.035156 187.183594 217.035156 C 187.183594 217.035156 202.109375 235.75 202.109375 245.027344 Z M 202.109375 245.027344 "/>
<path style=" stroke:none;fill-rule:nonzero;fill:rgb(19.219971%,76.858521%,100%);fill-opacity:1;" d="M 112.542969 289.808594 C 112.601562 290.851562 112.558594 291.886719 112.410156 292.917969 C 112.265625 293.949219 112.019531 294.957031 111.679688 295.941406 C 111.335938 296.925781 110.898438 297.867188 110.371094 298.765625 C 109.84375 299.664062 109.234375 300.503906 108.539062 301.28125 C 107.847656 302.0625 107.085938 302.765625 106.257812 303.394531 C 105.425781 304.023438 104.542969 304.566406 103.605469 305.023438 C 102.667969 305.480469 101.695312 305.839844 100.6875 306.105469 C 99.679688 306.371094 98.65625 306.539062 97.617188 306.601562 C 96.574219 306.539062 95.550781 306.371094 94.542969 306.105469 C 93.535156 305.839844 92.5625 305.480469 91.625 305.023438 C 90.691406 304.566406 89.804688 304.023438 88.976562 303.394531 C 88.144531 302.765625 87.382812 302.0625 86.691406 301.28125 C 86 300.503906 85.386719 299.664062 84.859375 298.765625 C 84.332031 297.867188 83.898438 296.925781 83.554688 295.941406 C 83.210938 294.957031 82.964844 293.949219 82.820312 292.917969 C 82.675781 291.886719 82.628906 290.851562 82.6875 289.808594 C 82.6875 280.53125 97.617188 261.820312 97.617188 261.820312 C 97.617188 261.820312 112.542969 280.53125 112.542969 289.808594 Z M 112.542969 289.808594 "/>
<path style=" stroke:none;fill-rule:nonzero;fill:rgb(0%,56.858826%,100%);fill-opacity:1;" d="M 97.617188 299.140625 C 96.75 299.097656 95.894531 298.988281 95.046875 298.800781 C 94.199219 298.617188 93.375 298.363281 92.574219 298.039062 C 91.769531 297.714844 91 297.324219 90.261719 296.867188 C 89.523438 296.414062 88.828125 295.898438 88.179688 295.328125 C 87.527344 294.753906 86.933594 294.132812 86.386719 293.457031 C 85.84375 292.785156 85.359375 292.070312 84.933594 291.3125 C 84.511719 290.558594 84.152344 289.773438 83.863281 288.957031 C 83.570312 288.140625 83.351562 287.304688 83.203125 286.449219 C 82.890625 287.546875 82.71875 288.667969 82.6875 289.808594 C 82.628906 290.851562 82.675781 291.886719 82.820312 292.917969 C 82.964844 293.949219 83.210938 294.957031 83.554688 295.941406 C 83.898438 296.925781 84.332031 297.867188 84.859375 298.765625 C 85.386719 299.664062 86 300.503906 86.691406 301.28125 C 87.382812 302.0625 88.144531 302.765625 88.976562 303.394531 C 89.804688 304.023438 90.691406 304.566406 91.625 305.023438 C 92.5625 305.480469 93.535156 305.839844 94.542969 306.105469 C 95.550781 306.371094 96.574219 306.539062 97.617188 306.601562 C 98.65625 306.539062 99.679688 306.371094 100.6875 306.105469 C 101.695312 305.839844 102.667969 305.480469 103.605469 305.023438 C 104.542969 304.566406 105.425781 304.023438 106.257812 303.394531 C 107.085938 302.765625 107.847656 302.0625 108.539062 301.28125 C 109.234375 300.503906 109.84375 299.664062 110.371094 298.765625 C 110.898438 297.867188 111.335938 296.925781 111.679688 295.941406 C 112.019531 294.957031 112.265625 293.949219 112.410156 292.917969 C 112.558594 291.886719 112.601562 290.851562 112.542969 289.808594 C 112.511719 288.679688 112.339844 287.574219 112.027344 286.488281 C 111.878906 287.339844 111.65625 288.171875 111.363281 288.988281 C 111.070312 289.800781 110.714844 290.585938 110.289062 291.339844 C 109.863281 292.09375 109.378906 292.804688 108.835938 293.476562 C 108.289062 294.148438 107.691406 294.769531 107.042969 295.34375 C 106.390625 295.914062 105.699219 296.425781 104.960938 296.878906 C 104.222656 297.332031 103.453125 297.71875 102.652344 298.042969 C 101.851562 298.367188 101.027344 298.621094 100.179688 298.804688 C 99.335938 298.988281 98.480469 299.101562 97.617188 299.140625 Z M 97.617188 299.140625 "/>
<path style=" stroke:none;fill-rule:nonzero;fill:rgb(0%,56.858826%,100%);fill-opacity:1;" d="M 187.183594 254.355469 C 186.316406 254.316406 185.460938 254.203125 184.613281 254.019531 C 183.765625 253.835938 182.941406 253.578125 182.136719 253.253906 C 181.335938 252.929688 180.566406 252.542969 179.828125 252.085938 C 179.089844 251.632812 178.394531 251.117188 177.746094 250.542969 C 177.09375 249.972656 176.496094 249.347656 175.953125 248.675781 C 175.40625 248 174.921875 247.285156 174.5 246.53125 C 174.078125 245.773438 173.71875 244.988281 173.429688 244.171875 C 173.136719 243.355469 172.917969 242.519531 172.769531 241.667969 C 172.453125 242.765625 172.28125 243.886719 172.253906 245.027344 C 172.195312 246.066406 172.242188 247.101562 172.386719 248.136719 C 172.53125 249.167969 172.777344 250.175781 173.121094 251.160156 C 173.460938 252.144531 173.898438 253.085938 174.425781 253.984375 C 174.953125 254.882812 175.5625 255.722656 176.257812 256.5 C 176.949219 257.277344 177.710938 257.984375 178.542969 258.613281 C 179.371094 259.242188 180.253906 259.785156 181.191406 260.242188 C 182.128906 260.699219 183.101562 261.058594 184.109375 261.324219 C 185.117188 261.589844 186.140625 261.753906 187.183594 261.820312 C 188.222656 261.753906 189.246094 261.589844 190.253906 261.324219 C 191.261719 261.058594 192.234375 260.699219 193.171875 260.242188 C 194.109375 259.785156 194.992188 259.242188 195.824219 258.613281 C 196.652344 257.984375 197.414062 257.277344 198.105469 256.5 C 198.800781 255.722656 199.410156 254.882812 199.9375 253.984375 C 200.464844 253.085938 200.902344 252.144531 201.242188 251.160156 C 201.585938 250.175781 201.832031 249.167969 201.976562 248.136719 C 202.121094 247.101562 202.167969 246.066406 202.109375 245.027344 C 202.078125 243.898438 201.90625 242.789062 201.59375 241.703125 C 201.441406 242.558594 201.222656 243.390625 200.929688 244.203125 C 200.636719 245.019531 200.28125 245.804688 199.855469 246.558594 C 199.429688 247.3125 198.945312 248.023438 198.402344 248.695312 C 197.855469 249.367188 197.257812 249.988281 196.609375 250.558594 C 195.957031 251.128906 195.265625 251.640625 194.527344 252.09375 C 193.789062 252.550781 193.019531 252.9375 192.21875 253.261719 C 191.414062 253.582031 190.589844 253.835938 189.746094 254.019531 C 188.902344 254.207031 188.046875 254.316406 187.183594 254.355469 Z M 187.183594 254.355469 "/>
<g clip-path="url(#clip3)" clip-rule="nonzero">
<path style=" stroke:none;fill-rule:nonzero;fill:rgb(19.219971%,76.858521%,100%);fill-opacity:1;" d="M 157.328125 342.054688 C 157.382812 343.097656 157.339844 344.132812 157.195312 345.164062 C 157.050781 346.195312 156.804688 347.203125 156.460938 348.1875 C 156.117188 349.171875 155.683594 350.113281 155.15625 351.011719 C 154.625 351.910156 154.015625 352.75 153.324219 353.53125 C 152.632812 354.308594 151.871094 355.011719 151.039062 355.640625 C 150.207031 356.273438 149.324219 356.816406 148.386719 357.269531 C 147.449219 357.726562 146.480469 358.089844 145.472656 358.355469 C 144.464844 358.621094 143.4375 358.785156 142.398438 358.851562 C 141.359375 358.785156 140.335938 358.621094 139.328125 358.355469 C 138.320312 358.089844 137.347656 357.726562 136.410156 357.269531 C 135.472656 356.816406 134.589844 356.273438 133.757812 355.640625 C 132.925781 355.011719 132.167969 354.308594 131.472656 353.53125 C 130.78125 352.75 130.171875 351.910156 129.644531 351.011719 C 129.117188 350.113281 128.679688 349.171875 128.335938 348.1875 C 127.992188 347.207031 127.75 346.195312 127.601562 345.164062 C 127.457031 344.132812 127.414062 343.097656 127.472656 342.054688 C 127.472656 332.777344 142.398438 314.066406 142.398438 314.066406 C 142.398438 314.066406 157.328125 332.777344 157.328125 342.054688 Z M 157.328125 342.054688 "/>
</g>
<g clip-path="url(#clip4)" clip-rule="nonzero">
<path style=" stroke:none;fill-rule:nonzero;fill:rgb(0%,56.858826%,100%);fill-opacity:1;" d="M 142.398438 351.386719 C 141.53125 351.347656 140.675781 351.234375 139.832031 351.050781 C 138.984375 350.863281 138.160156 350.609375 137.355469 350.285156 C 136.550781 349.960938 135.78125 349.570312 135.042969 349.117188 C 134.308594 348.660156 133.613281 348.148438 132.960938 347.574219 C 132.3125 347 131.714844 346.378906 131.167969 345.703125 C 130.625 345.03125 130.140625 344.316406 129.71875 343.558594 C 129.292969 342.804688 128.9375 342.019531 128.644531 341.203125 C 128.355469 340.386719 128.136719 339.550781 127.984375 338.699219 C 127.671875 339.796875 127.5 340.914062 127.472656 342.054688 C 127.414062 343.097656 127.457031 344.132812 127.601562 345.164062 C 127.75 346.195312 127.992188 347.207031 128.335938 348.1875 C 128.679688 349.171875 129.117188 350.113281 129.644531 351.011719 C 130.171875 351.910156 130.78125 352.75 131.472656 353.53125 C 132.167969 354.308594 132.925781 355.011719 133.757812 355.640625 C 134.589844 356.273438 135.472656 356.816406 136.410156 357.269531 C 137.347656 357.726562 138.320312 358.089844 139.328125 358.355469 C 140.335938 358.621094 141.359375 358.785156 142.398438 358.851562 C 143.4375 358.785156 144.464844 358.621094 145.472656 358.355469 C 146.480469 358.089844 147.449219 357.726562 148.386719 357.269531 C 149.324219 356.816406 150.207031 356.273438 151.039062 355.640625 C 151.871094 355.011719 152.632812 354.308594 153.324219 353.53125 C 154.015625 352.75 154.625 351.910156 155.15625 351.011719 C 155.683594 350.113281 156.117188 349.171875 156.460938 348.1875 C 156.804688 347.203125 157.050781 346.195312 157.195312 345.164062 C 157.339844 344.132812 157.382812 343.097656 157.328125 342.054688 C 157.292969 340.925781 157.121094 339.820312 156.8125 338.734375 C 156.660156 339.585938 156.4375 340.417969 156.148438 341.234375 C 155.855469 342.046875 155.496094 342.832031 155.070312 343.585938 C 154.648438 344.339844 154.164062 345.054688 153.617188 345.726562 C 153.074219 346.398438 152.476562 347.019531 151.824219 347.589844 C 151.175781 348.160156 150.480469 348.671875 149.746094 349.125 C 149.007812 349.578125 148.238281 349.96875 147.433594 350.289062 C 146.632812 350.613281 145.808594 350.867188 144.964844 351.050781 C 144.117188 351.234375 143.261719 351.347656 142.398438 351.386719 Z M 142.398438 351.386719 "/>
</g>
<path style=" stroke:none;fill-rule:nonzero;fill:rgb(19.219971%,76.858521%,100%);fill-opacity:1;" d="M 239.429688 312.199219 C 239.492188 312.726562 239.523438 313.253906 239.53125 313.785156 C 239.539062 314.3125 239.515625 314.839844 239.46875 315.367188 C 239.417969 315.894531 239.339844 316.417969 239.238281 316.9375 C 239.132812 317.457031 239 317.96875 238.84375 318.472656 C 238.683594 318.976562 238.5 319.472656 238.289062 319.957031 C 238.078125 320.445312 237.839844 320.917969 237.582031 321.378906 C 237.320312 321.839844 237.035156 322.285156 236.726562 322.714844 C 236.417969 323.144531 236.089844 323.558594 235.738281 323.953125 C 235.386719 324.351562 235.015625 324.726562 234.625 325.082031 C 234.234375 325.4375 233.824219 325.773438 233.398438 326.085938 C 232.96875 326.402344 232.527344 326.691406 232.070312 326.957031 C 231.613281 327.222656 231.144531 327.464844 230.660156 327.683594 C 230.175781 327.898438 229.683594 328.089844 229.179688 328.253906 C 228.679688 328.417969 228.167969 328.558594 227.652344 328.667969 C 227.132812 328.78125 226.609375 328.863281 226.085938 328.917969 C 225.558594 328.972656 225.03125 329.003906 224.5 329.003906 C 223.972656 329.003906 223.445312 328.972656 222.917969 328.917969 C 222.390625 328.863281 221.867188 328.78125 221.351562 328.667969 C 220.832031 328.558594 220.324219 328.417969 219.820312 328.253906 C 219.316406 328.089844 218.824219 327.898438 218.339844 327.683594 C 217.859375 327.464844 217.386719 327.222656 216.929688 326.957031 C 216.472656 326.691406 216.03125 326.402344 215.605469 326.085938 C 215.179688 325.773438 214.769531 325.4375 214.378906 325.082031 C 213.988281 324.726562 213.613281 324.351562 213.261719 323.953125 C 212.910156 323.558594 212.582031 323.144531 212.273438 322.714844 C 211.964844 322.285156 211.683594 321.839844 211.421875 321.378906 C 211.160156 320.917969 210.925781 320.445312 210.714844 319.957031 C 210.503906 319.472656 210.316406 318.976562 210.160156 318.472656 C 210 317.96875 209.867188 317.457031 209.765625 316.9375 C 209.660156 316.417969 209.582031 315.894531 209.535156 315.367188 C 209.484375 314.839844 209.464844 314.3125 209.46875 313.785156 C 209.476562 313.253906 209.511719 312.726562 209.574219 312.199219 C 209.574219 302.921875 224.5 284.210938 224.5 284.210938 C 224.5 284.210938 239.429688 302.921875 239.429688 312.199219 Z M 239.429688 312.199219 "/>
<path style=" stroke:none;fill-rule:nonzero;fill:rgb(0%,56.858826%,100%);fill-opacity:1;" d="M 224.5 321.53125 C 223.636719 321.492188 222.777344 321.378906 221.933594 321.195312 C 221.085938 321.007812 220.261719 320.753906 219.457031 320.429688 C 218.652344 320.105469 217.882812 319.714844 217.144531 319.261719 C 216.410156 318.804688 215.714844 318.292969 215.066406 317.71875 C 214.414062 317.148438 213.816406 316.523438 213.273438 315.847656 C 212.726562 315.175781 212.242188 314.460938 211.820312 313.707031 C 211.394531 312.949219 211.039062 312.164062 210.746094 311.347656 C 210.457031 310.53125 210.238281 309.695312 210.089844 308.84375 C 209.773438 309.941406 209.601562 311.058594 209.574219 312.199219 C 209.511719 312.726562 209.476562 313.253906 209.46875 313.785156 C 209.464844 314.3125 209.484375 314.839844 209.535156 315.367188 C 209.582031 315.894531 209.660156 316.417969 209.765625 316.9375 C 209.867188 317.457031 210 317.96875 210.160156 318.472656 C 210.316406 318.976562 210.503906 319.472656 210.714844 319.957031 C 210.925781 320.445312 211.160156 320.917969 211.421875 321.378906 C 211.683594 321.839844 211.964844 322.285156 212.273438 322.714844 C 212.582031 323.144531 212.910156 323.558594 213.261719 323.953125 C 213.613281 324.351562 213.988281 324.726562 214.378906 325.082031 C 214.769531 325.4375 215.179688 325.773438 215.605469 326.085938 C 216.03125 326.402344 216.472656 326.691406 216.929688 326.957031 C 217.386719 327.222656 217.859375 327.464844 218.339844 327.683594 C 218.824219 327.898438 219.316406 328.089844 219.820312 328.253906 C 220.324219 328.417969 220.832031 328.558594 221.351562 328.667969 C 221.867188 328.78125 222.390625 328.863281 222.917969 328.917969 C 223.445312 328.972656 223.972656 329.003906 224.5 329.003906 C 225.03125 329.003906 225.558594 328.972656 226.085938 328.917969 C 226.609375 328.863281 227.132812 328.78125 227.652344 328.667969 C 228.167969 328.558594 228.679688 328.417969 229.179688 328.253906 C 229.683594 328.089844 230.175781 327.898438 230.660156 327.683594 C 231.144531 327.464844 231.613281 327.222656 232.070312 326.957031 C 232.527344 326.691406 232.96875 326.402344 233.398438 326.085938 C 233.824219 325.773438 234.234375 325.4375 234.625 325.082031 C 235.015625 324.726562 235.386719 324.351562 235.738281 323.953125 C 236.089844 323.558594 236.417969 323.144531 236.726562 322.714844 C 237.035156 322.285156 237.320312 321.839844 237.582031 321.378906 C 237.839844 320.917969 238.078125 320.445312 238.289062 319.957031 C 238.5 319.472656 238.683594 318.976562 238.84375 318.472656 C 239 317.96875 239.132812 317.457031 239.238281 316.9375 C 239.339844 316.417969 239.417969 315.894531 239.46875 315.367188 C 239.515625 314.839844 239.539062 314.3125 239.53125 313.785156 C 239.523438 313.253906 239.492188 312.726562 239.429688 312.199219 C 239.394531 311.070312 239.226562 309.964844 238.914062 308.878906 C 238.761719 309.730469 238.539062 310.5625 238.25 311.378906 C 237.957031 312.191406 237.597656 312.976562 237.175781 313.730469 C 236.75 314.484375 236.265625 315.199219 235.71875 315.871094 C 235.175781 316.542969 234.578125 317.164062 233.925781 317.734375 C 233.277344 318.304688 232.582031 318.816406 231.847656 319.269531 C 231.109375 319.722656 230.339844 320.113281 229.539062 320.433594 C 228.734375 320.757812 227.910156 321.011719 227.066406 321.195312 C 226.21875 321.378906 225.363281 321.492188 224.5 321.53125 Z M 224.5 321.53125 "/>
<path style=" stroke:none;fill-rule:nonzero;fill:rgb(19.219971%,76.858521%,100%);fill-opacity:1;" d="M 306.601562 297.273438 C 306.664062 297.796875 306.699219 298.328125 306.707031 298.855469 C 306.710938 299.386719 306.691406 299.914062 306.640625 300.441406 C 306.59375 300.96875 306.515625 301.492188 306.410156 302.007812 C 306.308594 302.527344 306.175781 303.039062 306.015625 303.546875 C 305.859375 304.050781 305.675781 304.546875 305.464844 305.03125 C 305.253906 305.515625 305.015625 305.988281 304.753906 306.449219 C 304.496094 306.910156 304.210938 307.355469 303.902344 307.789062 C 303.59375 308.21875 303.265625 308.632812 302.914062 309.027344 C 302.5625 309.421875 302.191406 309.796875 301.796875 310.15625 C 301.40625 310.511719 300.996094 310.847656 300.570312 311.160156 C 300.144531 311.472656 299.703125 311.761719 299.246094 312.03125 C 298.789062 312.296875 298.316406 312.539062 297.835938 312.753906 C 297.351562 312.972656 296.859375 313.164062 296.355469 313.328125 C 295.851562 313.492188 295.34375 313.628906 294.824219 313.742188 C 294.308594 313.851562 293.785156 313.933594 293.257812 313.992188 C 292.734375 314.046875 292.203125 314.074219 291.675781 314.074219 C 291.144531 314.074219 290.617188 314.046875 290.089844 313.992188 C 289.566406 313.933594 289.042969 313.851562 288.527344 313.742188 C 288.007812 313.628906 287.496094 313.492188 286.996094 313.328125 C 286.492188 313.164062 286 312.972656 285.515625 312.753906 C 285.03125 312.539062 284.5625 312.296875 284.105469 312.03125 C 283.648438 311.761719 283.207031 311.472656 282.777344 311.160156 C 282.351562 310.847656 281.945312 310.511719 281.550781 310.15625 C 281.160156 309.796875 280.789062 309.421875 280.4375 309.027344 C 280.085938 308.632812 279.757812 308.21875 279.449219 307.789062 C 279.140625 307.355469 278.855469 306.910156 278.59375 306.449219 C 278.335938 305.988281 278.097656 305.515625 277.886719 305.03125 C 277.675781 304.546875 277.492188 304.050781 277.332031 303.546875 C 277.175781 303.039062 277.042969 302.527344 276.9375 302.007812 C 276.835938 301.492188 276.757812 300.96875 276.707031 300.441406 C 276.660156 299.914062 276.636719 299.386719 276.644531 298.855469 C 276.652344 298.328125 276.683594 297.796875 276.746094 297.273438 C 276.746094 287.996094 291.675781 269.285156 291.675781 269.285156 C 291.675781 269.285156 306.601562 287.996094 306.601562 297.273438 Z M 306.601562 297.273438 "/>
<path style=" stroke:none;fill-rule:nonzero;fill:rgb(0%,56.858826%,100%);fill-opacity:1;" d="M 291.675781 306.601562 C 290.808594 306.5625 289.953125 306.449219 289.105469 306.265625 C 288.261719 306.082031 287.433594 305.828125 286.632812 305.503906 C 285.828125 305.175781 285.058594 304.789062 284.320312 304.332031 C 283.582031 303.878906 282.890625 303.363281 282.238281 302.792969 C 281.589844 302.21875 280.992188 301.597656 280.445312 300.921875 C 279.902344 300.25 279.417969 299.535156 278.992188 298.777344 C 278.570312 298.023438 278.210938 297.234375 277.921875 296.417969 C 277.632812 295.601562 277.410156 294.769531 277.261719 293.914062 C 276.949219 295.011719 276.777344 296.132812 276.746094 297.273438 C 276.683594 297.796875 276.652344 298.328125 276.644531 298.855469 C 276.636719 299.386719 276.660156 299.914062 276.707031 300.441406 C 276.757812 300.96875 276.835938 301.492188 276.9375 302.007812 C 277.042969 302.527344 277.175781 303.039062 277.332031 303.546875 C 277.492188 304.050781 277.675781 304.546875 277.886719 305.03125 C 278.097656 305.515625 278.335938 305.988281 278.59375 306.449219 C 278.855469 306.910156 279.140625 307.355469 279.449219 307.789062 C 279.757812 308.21875 280.085938 308.632812 280.4375 309.027344 C 280.789062 309.421875 281.160156 309.796875 281.550781 310.15625 C 281.945312 310.511719 282.351562 310.847656 282.777344 311.160156 C 283.207031 311.472656 283.648438 311.761719 284.105469 312.03125 C 284.5625 312.296875 285.03125 312.539062 285.515625 312.753906 C 286 312.972656 286.492188 313.164062 286.996094 313.328125 C 287.496094 313.492188 288.007812 313.628906 288.527344 313.742188 C 289.042969 313.851562 289.566406 313.933594 290.089844 313.992188 C 290.617188 314.046875 291.144531 314.074219 291.675781 314.074219 C 292.203125 314.074219 292.734375 314.046875 293.257812 313.992188 C 293.785156 313.933594 294.308594 313.851562 294.824219 313.742188 C 295.34375 313.628906 295.851562 313.492188 296.355469 313.328125 C 296.859375 313.164062 297.351562 312.972656 297.835938 312.753906 C 298.316406 312.539062 298.789062 312.296875 299.246094 312.03125 C 299.703125 311.761719 300.144531 311.472656 300.570312 311.160156 C 300.996094 310.847656 301.40625 310.511719 301.796875 310.15625 C 302.191406 309.796875 302.5625 309.421875 302.914062 309.027344 C 303.265625 308.632812 303.59375 308.21875 303.902344 307.789062 C 304.210938 307.355469 304.496094 306.910156 304.753906 306.449219 C 305.015625 305.988281 305.253906 305.515625 305.464844 305.03125 C 305.675781 304.546875 305.859375 304.050781 306.015625 303.546875 C 306.175781 303.039062 306.308594 302.527344 306.410156 302.007812 C 306.515625 301.492188 306.59375 300.96875 306.640625 300.441406 C 306.691406 299.914062 306.710938 299.386719 306.707031 298.855469 C 306.699219 298.328125 306.664062 297.796875 306.601562 297.273438 C 306.570312 296.144531 306.398438 295.039062 306.089844 293.953125 C 305.9375 294.804688 305.714844 295.636719 305.421875 296.453125 C 305.132812 297.265625 304.773438 298.050781 304.347656 298.804688 C 303.925781 299.558594 303.4375 300.269531 302.894531 300.941406 C 302.347656 301.613281 301.75 302.234375 301.101562 302.804688 C 300.449219 303.375 299.757812 303.890625 299.019531 304.34375 C 298.285156 304.796875 297.515625 305.183594 296.710938 305.507812 C 295.910156 305.832031 295.085938 306.085938 294.238281 306.269531 C 293.394531 306.453125 292.539062 306.5625 291.675781 306.601562 Z M 291.675781 306.601562 "/>
<path style=" stroke:none;fill-rule:nonzero;fill:rgb(61.569214%,63.919067%,70.979309%);fill-opacity:1;" d="M 179.71875 227.554688 C 175.984375 221.71875 172.253906 217.035156 172.253906 217.035156 C 166.75 223.925781 162.1875 231.390625 158.558594 239.429688 L 173.558594 239.429688 C 175.199219 235.257812 177.253906 231.296875 179.71875 227.554688 Z M 179.71875 227.554688 "/>
<path style=" stroke:none;fill-rule:nonzero;fill:rgb(98.039246%,98.81897%,100%);fill-opacity:1;" d="M 185.082031 246.265625 C 185.484375 246.664062 185.816406 247.109375 186.078125 247.589844 C 186.339844 248.070312 186.507812 248.554688 186.589844 249.042969 C 186.667969 249.53125 186.652344 249.988281 186.539062 250.40625 C 186.425781 250.828125 186.222656 251.183594 185.933594 251.472656 C 185.644531 251.761719 185.292969 251.964844 184.871094 252.078125 C 184.449219 252.191406 183.996094 252.207031 183.507812 252.128906 C 183.019531 252.046875 182.535156 251.878906 182.050781 251.617188 C 181.570312 251.359375 181.128906 251.027344 180.726562 250.625 C 180.324219 250.222656 179.992188 249.78125 179.730469 249.300781 C 179.472656 248.820312 179.300781 248.332031 179.222656 247.84375 C 179.140625 247.355469 179.15625 246.902344 179.269531 246.480469 C 179.382812 246.0625 179.585938 245.707031 179.875 245.417969 C 180.164062 245.128906 180.519531 244.925781 180.9375 244.8125 C 181.359375 244.699219 181.8125 244.683594 182.304688 244.761719 C 182.792969 244.839844 183.277344 245.011719 183.757812 245.269531 C 184.238281 245.53125 184.683594 245.863281 185.082031 246.265625 Z M 185.082031 246.265625 "/>
<path style=" stroke:none;fill-rule:nonzero;fill:rgb(98.039246%,98.81897%,100%);fill-opacity:1;" d="M 95.519531 291.046875 C 95.917969 291.449219 96.25 291.890625 96.511719 292.371094 C 96.773438 292.855469 96.941406 293.339844 97.023438 293.828125 C 97.101562 294.316406 97.085938 294.769531 96.972656 295.191406 C 96.859375 295.613281 96.660156 295.96875 96.371094 296.257812 C 96.082031 296.546875 95.726562 296.746094 95.304688 296.859375 C 94.882812 296.972656 94.429688 296.992188 93.941406 296.910156 C 93.453125 296.832031 92.96875 296.660156 92.484375 296.402344 C 92.003906 296.140625 91.5625 295.808594 91.160156 295.40625 C 90.757812 295.007812 90.425781 294.566406 90.167969 294.082031 C 89.90625 293.601562 89.734375 293.117188 89.65625 292.628906 C 89.574219 292.140625 89.59375 291.683594 89.707031 291.265625 C 89.820312 290.84375 90.019531 290.488281 90.308594 290.199219 C 90.597656 289.910156 90.953125 289.707031 91.375 289.59375 C 91.792969 289.480469 92.25 289.464844 92.738281 289.542969 C 93.226562 289.625 93.710938 289.792969 94.191406 290.054688 C 94.675781 290.316406 95.117188 290.644531 95.519531 291.046875 Z M 95.519531 291.046875 "/>
<path style=" stroke:none;fill-rule:nonzero;fill:rgb(98.039246%,98.81897%,100%);fill-opacity:1;" d="M 140.304688 343.292969 C 140.707031 343.695312 141.039062 344.136719 141.300781 344.617188 C 141.5625 345.097656 141.730469 345.582031 141.8125 346.070312 C 141.890625 346.558594 141.875 347.015625 141.761719 347.4375 C 141.648438 347.855469 141.445312 348.210938 141.15625 348.5 C 140.867188 348.789062 140.515625 348.992188 140.09375 349.105469 C 139.671875 349.21875 139.21875 349.234375 138.730469 349.15625 C 138.242188 349.074219 137.753906 348.90625 137.273438 348.644531 C 136.792969 348.386719 136.351562 348.054688 135.949219 347.652344 C 135.546875 347.25 135.214844 346.808594 134.953125 346.328125 C 134.695312 345.847656 134.523438 345.359375 134.445312 344.871094 C 134.363281 344.382812 134.378906 343.929688 134.492188 343.507812 C 134.605469 343.089844 134.808594 342.734375 135.097656 342.445312 C 135.386719 342.15625 135.742188 341.953125 136.160156 341.839844 C 136.582031 341.726562 137.035156 341.710938 137.523438 341.789062 C 138.011719 341.867188 138.5 342.039062 138.980469 342.300781 C 139.460938 342.558594 139.902344 342.890625 140.304688 343.292969 Z M 140.304688 343.292969 "/>
<path style=" stroke:none;fill-rule:nonzero;fill:rgb(98.039246%,98.81897%,100%);fill-opacity:1;" d="M 222.398438 313.441406 C 222.800781 313.84375 223.128906 314.285156 223.390625 314.765625 C 223.652344 315.246094 223.824219 315.734375 223.902344 316.222656 C 223.980469 316.710938 223.964844 317.164062 223.851562 317.585938 C 223.738281 318.003906 223.539062 318.359375 223.25 318.648438 C 222.960938 318.9375 222.605469 319.140625 222.183594 319.253906 C 221.765625 319.367188 221.308594 319.382812 220.820312 319.304688 C 220.332031 319.226562 219.847656 319.054688 219.367188 318.792969 C 218.882812 318.535156 218.441406 318.203125 218.039062 317.800781 C 217.636719 317.398438 217.308594 316.957031 217.046875 316.476562 C 216.785156 315.996094 216.613281 315.511719 216.535156 315.023438 C 216.457031 314.535156 216.472656 314.078125 216.585938 313.65625 C 216.699219 313.238281 216.898438 312.882812 217.1875 312.59375 C 217.476562 312.304688 217.832031 312.101562 218.253906 311.988281 C 218.671875 311.875 219.128906 311.859375 219.617188 311.9375 C 220.105469 312.019531 220.589844 312.1875 221.070312 312.449219 C 221.554688 312.707031 221.996094 313.039062 222.398438 313.441406 Z M 222.398438 313.441406 "/>
<path style=" stroke:none;fill-rule:nonzero;fill:rgb(98.039246%,98.81897%,100%);fill-opacity:1;" d="M 289.570312 298.511719 C 289.972656 298.914062 290.304688 299.355469 290.566406 299.839844 C 290.828125 300.320312 290.996094 300.804688 291.078125 301.292969 C 291.15625 301.78125 291.140625 302.234375 291.027344 302.65625 C 290.914062 303.078125 290.710938 303.433594 290.421875 303.722656 C 290.132812 304.011719 289.78125 304.210938 289.359375 304.324219 C 288.9375 304.4375 288.484375 304.457031 287.996094 304.375 C 287.507812 304.296875 287.023438 304.128906 286.539062 303.867188 C 286.058594 303.605469 285.617188 303.277344 285.214844 302.875 C 284.8125 302.472656 284.480469 302.03125 284.21875 301.550781 C 283.960938 301.066406 283.789062 300.582031 283.710938 300.09375 C 283.628906 299.605469 283.644531 299.152344 283.757812 298.730469 C 283.871094 298.308594 284.074219 297.953125 284.363281 297.664062 C 284.652344 297.375 285.007812 297.175781 285.425781 297.0625 C 285.847656 296.949219 286.300781 296.929688 286.792969 297.011719 C 287.28125 297.089844 287.765625 297.261719 288.246094 297.519531 C 288.726562 297.78125 289.171875 298.113281 289.570312 298.511719 Z M 289.570312 298.511719 "/>
</g>
</svg>
