<?xml version="1.0" encoding="UTF-8"?>
<svg xmlns="http://www.w3.org/2000/svg" xmlns:xlink="http://www.w3.org/1999/xlink" width="375pt" height="374.999991pt" viewBox="0 0 375 374.999991" version="1.2">
<defs>
<clipPath id="clip1">
  <path d="M 7 24 L 369.863281 24 L 369.863281 224 L 7 224 Z M 7 24 "/>
</clipPath>
<clipPath id="clip2">
  <path d="M 164 81 L 280.425781 81 L 280.425781 351.839844 L 164 351.839844 Z M 164 81 "/>
</clipPath>
</defs>
<g id="surface1">
<g clip-path="url(#clip1)" clip-rule="nonzero">
<path style=" stroke:none;fill-rule:nonzero;fill:rgb(34.509277%,36.079407%,43.139648%);fill-opacity:1;" d="M 354.191406 107.601562 C 345.648438 100.820312 335.917969 95.902344 324.925781 96.570312 C 324.203125 96.609375 323.484375 96.671875 322.765625 96.761719 C 315.253906 74.425781 295.625 59.015625 273.566406 60.34375 C 267.925781 60.691406 262.550781 62.121094 257.625 64.433594 C 246.136719 39.761719 222.742188 23.523438 196.746094 25.082031 C 172.390625 26.53125 152.160156 43.277344 142.75 66.65625 C 133.445312 57.976562 121.421875 53.058594 108.546875 53.824219 C 86.160156 55.171875 68.339844 73.320312 63.847656 96.898438 C 58.4375 94.511719 52.511719 93.320312 46.316406 93.703125 C 23.265625 95.085938 5.847656 117.410156 7.429688 143.535156 C 8.988281 169.683594 28.964844 189.746094 52.015625 188.371094 C 59.992188 187.894531 67.210938 184.898438 73.292969 180.136719 C 81.816406 191.675781 96.523438 199.773438 113.472656 200.660156 C 126.367188 201.359375 138.222656 197.757812 147.148438 191.363281 C 157.480469 208.941406 178.355469 221.652344 202.765625 222.945312 C 204.386719 223.035156 206 223.074219 207.59375 223.058594 L 215.96875 188.867188 L 169.335938 191.761719 C 167.824219 191.851562 166.339844 191.1875 165.40625 189.976562 C 164.46875 188.769531 164.199219 187.175781 164.675781 185.722656 L 197.441406 86.246094 C 198.03125 84.449219 199.660156 83.199219 201.550781 83.085938 L 253.503906 80.105469 C 255.160156 80.007812 256.683594 80.785156 257.59375 82.136719 C 258.5 83.488281 258.628906 85.21875 257.925781 86.6875 L 229.449219 146.535156 L 274.519531 143.734375 C 276.164062 143.628906 277.738281 144.414062 278.644531 145.785156 C 279.554688 147.160156 279.660156 148.910156 278.933594 150.386719 L 250.296875 207.957031 C 255.058594 203.929688 259.066406 199.246094 262.054688 194.023438 C 267.0625 195.785156 272.472656 196.917969 278.179688 197.203125 C 291.242188 197.910156 303.214844 194.207031 312.203125 187.617188 C 317.863281 190.292969 324.113281 191.621094 330.621094 191.242188 C 352.5 189.929688 369.566406 169.726562 369.601562 145.324219 C 369.621094 124.941406 364.011719 115.429688 354.191406 107.601562 "/>
</g>
<path style=" stroke:none;fill-rule:nonzero;fill:rgb(59.21936%,79.998779%,96.469116%);fill-opacity:1;" d="M 84.347656 271.277344 C 82.011719 277.679688 73.980469 280.644531 66.414062 277.898438 C 65.71875 277.621094 65.035156 277.339844 64.402344 277.015625 C 73.207031 279.140625 81.980469 275.390625 84.667969 267.984375 C 84.808594 267.632812 84.921875 267.230469 85.007812 266.789062 C 84.921875 268.722656 84.722656 270.277344 84.347656 271.277344 Z M 58.582031 261.953125 C 55.820312 269.542969 59.734375 277.929688 67.300781 280.675781 C 74.902344 283.457031 83.273438 279.535156 86.039062 271.957031 C 88.804688 264.351562 86.269531 228.628906 86.269531 228.628906 C 86.269531 228.628906 61.351562 254.363281 58.582031 261.953125 "/>
<path style=" stroke:none;fill-rule:nonzero;fill:rgb(59.21936%,79.998779%,96.469116%);fill-opacity:1;" d="M 187.300781 271.277344 C 184.980469 277.679688 176.917969 280.644531 169.3125 277.898438 C 168.652344 277.621094 167.992188 277.339844 167.359375 277.015625 C 176.164062 279.140625 184.914062 275.390625 187.621094 267.984375 C 187.734375 267.632812 187.855469 267.230469 187.933594 266.789062 C 187.855469 268.722656 187.644531 270.277344 187.300781 271.277344 Z M 161.539062 261.953125 C 158.777344 269.542969 162.691406 277.929688 170.265625 280.675781 C 177.832031 283.457031 186.242188 279.535156 189.003906 271.957031 C 191.765625 264.351562 189.207031 228.628906 189.207031 228.628906 C 189.207031 228.628906 164.273438 254.363281 161.539062 261.953125 "/>
<path style=" stroke:none;fill-rule:nonzero;fill:rgb(59.21936%,79.998779%,96.469116%);fill-opacity:1;" d="M 229.585938 321.542969 C 227.253906 327.957031 219.222656 330.910156 211.625 328.160156 C 210.9375 327.910156 210.273438 327.621094 209.644531 327.289062 C 218.453125 329.394531 227.199219 325.660156 229.90625 318.265625 C 230.050781 317.90625 230.140625 317.507812 230.21875 317.054688 C 230.160156 319 229.933594 320.566406 229.585938 321.542969 Z M 203.796875 312.238281 C 201.0625 319.8125 204.976562 328.191406 212.542969 330.953125 C 220.152344 333.71875 228.527344 329.796875 231.285156 322.226562 C 234.046875 314.636719 231.492188 278.917969 231.492188 278.917969 C 231.492188 278.917969 206.589844 304.632812 203.796875 312.238281 "/>
<path style=" stroke:none;fill-rule:nonzero;fill:rgb(59.21936%,79.998779%,96.469116%);fill-opacity:1;" d="M 128.035156 261.832031 C 128.089844 261.664062 128.144531 261.445312 128.214844 261.214844 C 128.144531 262.222656 128.035156 263.039062 127.859375 263.546875 C 126.628906 266.921875 122.453125 268.46875 118.480469 267.035156 C 118.101562 266.890625 117.761719 266.726562 117.417969 266.570312 C 122.019531 267.679688 126.597656 265.703125 128.035156 261.832031 Z M 118.945312 268.484375 C 122.910156 269.921875 127.289062 267.882812 128.757812 263.929688 C 130.195312 259.945312 128.84375 241.273438 128.84375 241.273438 C 128.84375 241.273438 115.835938 254.714844 114.398438 258.683594 C 112.949219 262.65625 114.972656 267.046875 118.945312 268.484375 "/>
<path style=" stroke:none;fill-rule:nonzero;fill:rgb(59.21936%,79.998779%,96.469116%);fill-opacity:1;" d="M 70.585938 334.46875 C 69.375 337.824219 65.175781 339.359375 61.203125 337.917969 C 60.828125 337.808594 60.484375 337.628906 60.164062 337.484375 C 64.765625 338.578125 69.347656 336.617188 70.761719 332.742188 C 70.816406 332.566406 70.875 332.359375 70.929688 332.117188 C 70.875 333.144531 70.789062 333.964844 70.585938 334.46875 Z M 57.113281 329.601562 C 55.675781 333.570312 57.71875 337.949219 61.691406 339.40625 C 65.632812 340.828125 70.042969 338.796875 71.480469 334.828125 C 72.917969 330.875 71.59375 312.171875 71.59375 312.171875 C 71.59375 312.171875 58.550781 325.632812 57.113281 329.601562 "/>
<path style=" stroke:none;fill-rule:nonzero;fill:rgb(59.21936%,79.998779%,96.469116%);fill-opacity:1;" d="M 173.519531 323.820312 C 172.304688 327.15625 168.105469 328.710938 164.128906 327.257812 C 163.785156 327.132812 163.441406 326.984375 163.101562 326.8125 C 167.703125 327.914062 172.28125 325.964844 173.6875 322.09375 C 173.773438 321.90625 173.828125 321.683594 173.863281 321.457031 C 173.828125 322.460938 173.714844 323.28125 173.519531 323.820312 Z M 160.046875 318.925781 C 158.609375 322.898438 160.679688 327.289062 164.628906 328.726562 C 168.597656 330.1875 172.96875 328.121094 174.4375 324.160156 C 175.875 320.199219 174.523438 301.511719 174.523438 301.511719 C 174.523438 301.511719 161.484375 314.957031 160.046875 318.925781 "/>
<path style=" stroke:none;fill-rule:nonzero;fill:rgb(59.21936%,79.998779%,96.469116%);fill-opacity:1;" d="M 247.265625 261.734375 C 246.023438 265.089844 241.820312 266.628906 237.875 265.195312 C 237.507812 265.074219 237.15625 264.902344 236.84375 264.730469 C 241.421875 265.84375 245.992188 263.890625 247.429688 260.019531 C 247.492188 259.824219 247.550781 259.625 247.601562 259.375 C 247.550781 260.398438 247.460938 261.230469 247.265625 261.734375 Z M 233.792969 256.867188 C 232.351562 260.84375 234.398438 265.214844 238.335938 266.652344 C 242.3125 268.097656 246.691406 266.058594 248.148438 262.082031 C 249.597656 258.128906 248.238281 239.441406 248.238281 239.441406 C 248.238281 239.441406 235.230469 252.898438 233.792969 256.867188 "/>
<path style=" stroke:none;fill-rule:nonzero;fill:rgb(59.21936%,79.998779%,96.469116%);fill-opacity:1;" d="M 269.105469 317.742188 C 267.871094 321.085938 263.667969 322.644531 259.695312 321.207031 C 259.355469 321.058594 259 320.917969 258.660156 320.734375 C 263.269531 321.859375 267.835938 319.90625 269.25 316.015625 C 269.308594 315.835938 269.363281 315.613281 269.425781 315.386719 C 269.394531 316.394531 269.285156 317.21875 269.105469 317.742188 Z M 255.613281 312.855469 C 254.167969 316.824219 256.210938 321.210938 260.183594 322.660156 C 264.152344 324.101562 268.535156 322.046875 269.972656 318.085938 C 271.441406 314.113281 270.089844 295.445312 270.089844 295.445312 C 270.089844 295.445312 257.050781 308.910156 255.613281 312.855469 "/>
<path style=" stroke:none;fill-rule:nonzero;fill:rgb(59.21936%,79.998779%,96.469116%);fill-opacity:1;" d="M 324.71875 237.097656 C 323.484375 240.445312 319.277344 241.996094 315.308594 240.546875 C 314.953125 240.4375 314.613281 240.28125 314.269531 240.097656 C 318.902344 241.199219 323.484375 239.257812 324.867188 235.378906 C 324.945312 235.203125 325.007812 234.988281 325.035156 234.753906 C 325.007812 235.773438 324.894531 236.578125 324.71875 237.097656 Z M 325.695312 214.8125 C 325.695312 214.8125 312.691406 228.261719 311.25 232.214844 C 309.785156 236.191406 311.851562 240.585938 315.796875 242.023438 C 319.765625 243.472656 324.140625 241.414062 325.609375 237.453125 C 327.046875 233.496094 325.695312 214.8125 325.695312 214.8125 "/>
<path style=" stroke:none;fill-rule:nonzero;fill:rgb(59.21936%,79.998779%,96.469116%);fill-opacity:1;" d="M 45.3125 243.210938 C 44.105469 246.550781 39.902344 248.105469 35.929688 246.664062 C 35.554688 246.535156 35.210938 246.382812 34.890625 246.207031 C 39.503906 247.308594 44.074219 245.359375 45.484375 241.484375 C 45.542969 241.300781 45.597656 241.089844 45.65625 240.855469 C 45.597656 241.882812 45.484375 242.679688 45.3125 243.210938 Z M 31.84375 238.3125 C 30.398438 242.292969 32.449219 246.679688 36.386719 248.117188 C 40.363281 249.570312 44.765625 247.519531 46.203125 243.558594 C 47.648438 239.601562 46.316406 220.902344 46.316406 220.902344 C 46.316406 220.902344 33.277344 234.359375 31.84375 238.3125 "/>
<path style=" stroke:none;fill-rule:nonzero;fill:rgb(59.21936%,79.998779%,96.469116%);fill-opacity:1;" d="M 128.789062 321.542969 C 126.417969 327.957031 118.394531 330.910156 110.828125 328.160156 C 110.109375 327.910156 109.441406 327.621094 108.8125 327.289062 C 117.617188 329.394531 126.367188 325.660156 129.074219 318.265625 C 129.222656 317.90625 129.332031 317.507812 129.417969 317.054688 C 129.332031 319 129.128906 320.566406 128.789062 321.542969 Z M 102.996094 312.238281 C 100.230469 319.8125 104.148438 328.191406 111.742188 330.953125 C 119.316406 333.71875 127.71875 329.796875 130.480469 322.226562 C 133.214844 314.636719 130.691406 278.917969 130.691406 278.917969 C 130.691406 278.917969 105.757812 304.632812 102.996094 312.238281 "/>
<path style=" stroke:none;fill-rule:nonzero;fill:rgb(59.21936%,79.998779%,96.469116%);fill-opacity:1;" d="M 297.316406 271.277344 C 294.980469 277.679688 286.925781 280.644531 279.351562 277.898438 C 278.632812 277.621094 277.996094 277.339844 277.371094 277.015625 C 286.175781 279.140625 294.921875 275.390625 297.632812 267.984375 C 297.746094 267.632812 297.867188 267.230469 297.945312 266.789062 C 297.867188 268.722656 297.660156 270.277344 297.316406 271.277344 Z M 271.53125 261.953125 C 268.789062 269.542969 272.679688 277.929688 280.28125 280.675781 C 287.847656 283.457031 296.25 279.535156 299.019531 271.957031 C 301.78125 264.351562 299.214844 228.628906 299.214844 228.628906 C 299.214844 228.628906 274.289062 254.363281 271.53125 261.953125 "/>
<g clip-path="url(#clip2)" clip-rule="nonzero">
<path style=" stroke:none;fill-rule:nonzero;fill:rgb(94.509888%,76.469421%,5.879211%);fill-opacity:1;" d="M 280.40625 144.617188 L 227.421875 147.90625 L 259.246094 81.027344 L 199.335938 84.460938 L 164.304688 190.828125 L 217.578125 187.519531 L 177.328125 351.863281 L 280.40625 144.617188 "/>
</g>
</g>
</svg>
