<?xml version="1.0" encoding="UTF-8"?>
<svg xmlns="http://www.w3.org/2000/svg" xmlns:xlink="http://www.w3.org/1999/xlink" width="375pt" height="299.999988pt" viewBox="0 0 375 299.999988" version="1.2">
<defs>
<clipPath id="clip1">
  <path d="M 12.183594 7.992188 L 363.933594 7.992188 L 363.933594 227 L 12.183594 227 Z M 12.183594 7.992188 "/>
</clipPath>
<clipPath id="clip2">
  <path d="M 91 220 L 164 220 L 164 292.992188 L 91 292.992188 Z M 91 220 "/>
</clipPath>
</defs>
<g id="surface1">
<g clip-path="url(#clip1)" clip-rule="nonzero">
<path style=" stroke:none;fill-rule:nonzero;fill:rgb(67.059326%,85.099792%,95.689392%);fill-opacity:1;" d="M 291.261719 226.472656 L 297.328125 226.472656 C 334.171875 226.472656 364.046875 196.578125 364.046875 159.714844 C 364.046875 122.851562 334.171875 92.957031 297.328125 92.957031 C 292.804688 92.957031 288.394531 93.429688 284.109375 94.285156 C 279.109375 69.296875 257.050781 50.476562 230.609375 50.476562 C 222.460938 50.476562 214.757812 52.300781 207.816406 55.523438 C 197.511719 27.789062 170.929688 7.992188 139.628906 7.992188 C 99.425781 7.992188 66.847656 40.589844 66.847656 80.820312 C 66.847656 89.378906 68.410156 97.554688 71.109375 105.191406 C 38.460938 106.136719 12.257812 132.878906 12.257812 165.785156 C 12.257812 199.304688 39.410156 226.472656 72.910156 226.472656 "/>
</g>
<g clip-path="url(#clip2)" clip-rule="nonzero">
<path style=" stroke:none;fill-rule:nonzero;fill:rgb(76.469421%,92.158508%,94.898987%);fill-opacity:1;" d="M 157.824219 250.746094 L 142.140625 250.746094 L 156.050781 236.832031 C 158.417969 234.460938 158.417969 230.621094 156.050781 228.25 C 153.679688 225.878906 149.839844 225.878906 147.472656 228.25 L 133.566406 242.164062 L 133.566406 226.472656 C 133.566406 223.128906 130.839844 220.402344 127.5 220.402344 C 124.160156 220.402344 121.433594 223.128906 121.433594 226.472656 L 121.433594 242.164062 L 107.527344 228.25 C 105.15625 225.878906 101.320312 225.878906 98.949219 228.25 C 96.582031 230.621094 96.582031 234.460938 98.949219 236.832031 L 112.859375 250.746094 L 97.171875 250.746094 C 93.832031 250.746094 91.109375 253.472656 91.109375 256.816406 C 91.109375 260.15625 93.832031 262.882812 97.171875 262.882812 L 112.859375 262.882812 L 98.949219 276.800781 C 96.582031 279.171875 96.582031 283.011719 98.949219 285.382812 C 100.132812 286.566406 101.675781 287.160156 103.238281 287.160156 C 104.800781 287.160156 106.34375 286.566406 107.527344 285.382812 L 121.433594 271.464844 L 121.433594 287.160156 C 121.433594 290.503906 124.160156 293.226562 127.5 293.226562 C 130.839844 293.226562 133.566406 290.503906 133.566406 287.160156 L 133.566406 271.464844 L 147.472656 285.382812 C 148.65625 286.566406 150.195312 287.160156 151.761719 287.160156 C 153.324219 287.160156 154.863281 286.566406 156.050781 285.382812 C 158.417969 283.011719 158.417969 279.171875 156.050781 276.800781 L 142.140625 262.882812 L 157.824219 262.882812 C 161.167969 262.882812 163.890625 260.15625 163.890625 256.816406 C 163.890625 253.472656 161.167969 250.746094 157.824219 250.746094 "/>
</g>
<path style=" stroke:none;fill-rule:nonzero;fill:rgb(76.469421%,92.158508%,94.898987%);fill-opacity:1;" d="M 267 238.609375 L 251.316406 238.609375 L 265.226562 224.695312 C 267.59375 222.324219 267.59375 218.480469 265.226562 216.113281 C 262.855469 213.742188 259.015625 213.742188 256.648438 216.113281 L 242.742188 230.027344 L 242.742188 214.332031 C 242.742188 210.992188 240.015625 208.265625 236.675781 208.265625 C 233.335938 208.265625 230.609375 210.992188 230.609375 214.332031 L 230.609375 230.027344 L 216.703125 216.113281 C 214.332031 213.742188 210.496094 213.742188 208.125 216.113281 C 205.757812 218.480469 205.757812 222.324219 208.125 224.695312 L 222.03125 238.609375 L 206.347656 238.609375 C 203.007812 238.609375 200.285156 241.335938 200.285156 244.679688 C 200.285156 248.019531 203.007812 250.746094 206.347656 250.746094 L 222.03125 250.746094 L 208.125 264.664062 C 205.757812 267.03125 205.757812 270.875 208.125 273.242188 C 209.308594 274.429688 210.851562 275.023438 212.414062 275.023438 C 213.976562 275.023438 215.519531 274.429688 216.703125 273.242188 L 230.609375 259.328125 L 230.609375 275.023438 C 230.609375 278.363281 233.335938 281.089844 236.675781 281.089844 C 240.015625 281.089844 242.742188 278.363281 242.742188 275.023438 L 242.742188 259.328125 L 256.648438 273.242188 C 257.832031 274.429688 259.371094 275.023438 260.9375 275.023438 C 262.5 275.023438 264.039062 274.429688 265.226562 273.242188 C 267.59375 270.875 267.59375 267.03125 265.226562 264.664062 L 251.316406 250.746094 L 267 250.746094 C 270.34375 250.746094 273.066406 248.019531 273.066406 244.679688 C 273.066406 241.335938 270.34375 238.609375 267 238.609375 "/>
<path style=" stroke:none;fill-rule:nonzero;fill:rgb(76.469421%,92.158508%,94.898987%);fill-opacity:1;" d="M 198.507812 191.835938 L 184.597656 177.921875 L 200.285156 177.921875 C 203.625 177.921875 206.347656 175.195312 206.347656 171.851562 C 206.347656 168.507812 203.625 165.785156 200.285156 165.785156 L 184.597656 165.785156 L 198.507812 151.867188 C 200.875 149.496094 200.875 145.65625 198.507812 143.285156 C 196.136719 140.914062 192.300781 140.914062 189.929688 143.285156 L 176.023438 157.203125 L 176.023438 141.507812 C 176.023438 138.164062 173.296875 135.4375 169.957031 135.4375 C 166.617188 135.4375 163.890625 138.164062 163.890625 141.507812 L 163.890625 157.203125 L 149.984375 143.285156 C 147.613281 140.914062 143.777344 140.914062 141.40625 143.285156 C 139.039062 145.65625 139.039062 149.496094 141.40625 151.867188 L 155.316406 165.785156 L 139.628906 165.785156 C 136.289062 165.785156 133.566406 168.507812 133.566406 171.851562 C 133.566406 175.195312 136.289062 177.921875 139.628906 177.921875 L 155.316406 177.921875 L 141.40625 191.835938 C 139.039062 194.207031 139.039062 198.046875 141.40625 200.417969 C 142.589844 201.605469 144.132812 202.195312 145.695312 202.195312 C 147.257812 202.195312 148.800781 201.605469 149.984375 200.417969 L 163.890625 186.503906 L 163.890625 202.195312 C 163.890625 205.539062 166.617188 208.265625 169.957031 208.265625 C 173.296875 208.265625 176.023438 205.539062 176.023438 202.195312 L 176.023438 186.503906 L 189.929688 200.417969 C 191.113281 201.605469 192.652344 202.195312 194.21875 202.195312 C 195.78125 202.195312 197.320312 201.605469 198.507812 200.417969 C 200.875 198.046875 200.875 194.207031 198.507812 191.835938 "/>
</g>
</svg>
