<?xml version="1.0" encoding="UTF-8"?>
<svg xmlns="http://www.w3.org/2000/svg" xmlns:xlink="http://www.w3.org/1999/xlink" width="375pt" height="299.999988pt" viewBox="0 0 375 299.999988" version="1.2">
<defs>
<clipPath id="clip1">
  <path d="M 13.210938 19.285156 L 361.035156 19.285156 L 361.035156 63 L 13.210938 63 Z M 13.210938 19.285156 "/>
</clipPath>
<clipPath id="clip2">
  <path d="M 13.210938 91 L 361.035156 91 L 361.035156 136 L 13.210938 136 Z M 13.210938 91 "/>
</clipPath>
<clipPath id="clip3">
  <path d="M 13.210938 164 L 361.035156 164 L 361.035156 208 L 13.210938 208 Z M 13.210938 164 "/>
</clipPath>
<clipPath id="clip4">
  <path d="M 13.210938 236 L 361.035156 236 L 361.035156 280.15625 L 13.210938 280.15625 Z M 13.210938 236 "/>
</clipPath>
</defs>
<g id="surface1">
<g clip-path="url(#clip1)" clip-rule="nonzero">
<path style=" stroke:none;fill-rule:nonzero;fill:rgb(56.469727%,64.309692%,68.238831%);fill-opacity:1;" d="M 353.789062 62.761719 C 350.226562 62.769531 346.699219 62.414062 343.210938 61.703125 C 339.71875 60.992188 336.335938 59.9375 333.058594 58.539062 C 329.785156 57.140625 326.683594 55.425781 323.753906 53.398438 C 320.828125 51.367188 318.132812 49.0625 315.671875 46.488281 C 314.773438 45.488281 313.824219 44.539062 312.824219 43.640625 C 311.824219 42.742188 310.777344 41.898438 309.691406 41.109375 C 308.601562 40.320312 307.476562 39.589844 306.3125 38.917969 C 305.148438 38.246094 303.949219 37.640625 302.722656 37.09375 C 301.496094 36.546875 300.242188 36.066406 298.960938 35.652344 C 297.683594 35.234375 296.386719 34.890625 295.070312 34.609375 C 293.757812 34.332031 292.429688 34.121094 291.09375 33.980469 C 289.757812 33.839844 288.417969 33.769531 287.070312 33.769531 C 285.726562 33.769531 284.386719 33.839844 283.050781 33.980469 C 281.714844 34.121094 280.386719 34.332031 279.074219 34.609375 C 277.757812 34.890625 276.460938 35.234375 275.183594 35.652344 C 273.902344 36.066406 272.648438 36.546875 271.421875 37.09375 C 270.195312 37.640625 268.996094 38.246094 267.832031 38.917969 C 266.667969 39.589844 265.542969 40.320312 264.453125 41.109375 C 263.363281 41.898438 262.320312 42.742188 261.320312 43.640625 C 260.320312 44.539062 259.371094 45.488281 258.472656 46.488281 C 257.242188 47.769531 255.953125 48.988281 254.601562 50.140625 C 253.25 51.292969 251.847656 52.375 250.386719 53.386719 C 248.925781 54.394531 247.417969 55.332031 245.863281 56.191406 C 244.308594 57.046875 242.714844 57.824219 241.082031 58.523438 C 239.449219 59.222656 237.785156 59.835938 236.089844 60.363281 C 234.394531 60.894531 232.675781 61.335938 230.9375 61.691406 C 229.199219 62.046875 227.445312 62.316406 225.675781 62.496094 C 223.910156 62.671875 222.140625 62.761719 220.363281 62.761719 C 218.585938 62.761719 216.816406 62.671875 215.050781 62.496094 C 213.28125 62.316406 211.527344 62.046875 209.789062 61.691406 C 208.050781 61.335938 206.332031 60.894531 204.636719 60.363281 C 202.941406 59.835938 201.277344 59.222656 199.644531 58.523438 C 198.011719 57.824219 196.417969 57.046875 194.863281 56.191406 C 193.308594 55.332031 191.800781 54.394531 190.339844 53.386719 C 188.878906 52.375 187.472656 51.292969 186.125 50.140625 C 184.773438 48.988281 183.484375 47.769531 182.253906 46.488281 C 181.355469 45.492188 180.40625 44.542969 179.410156 43.644531 C 178.410156 42.746094 177.371094 41.902344 176.28125 41.117188 C 175.195312 40.328125 174.070312 39.597656 172.910156 38.925781 C 171.746094 38.257812 170.550781 37.648438 169.324219 37.101562 C 168.097656 36.554688 166.847656 36.078125 165.570312 35.660156 C 164.292969 35.246094 163 34.902344 161.6875 34.621094 C 160.371094 34.34375 159.046875 34.132812 157.714844 33.992188 C 156.378906 33.851562 155.039062 33.78125 153.699219 33.78125 C 152.355469 33.78125 151.015625 33.851562 149.679688 33.992188 C 148.347656 34.132812 147.023438 34.34375 145.710938 34.621094 C 144.394531 34.902344 143.101562 35.246094 141.824219 35.660156 C 140.546875 36.078125 139.296875 36.554688 138.070312 37.101562 C 136.84375 37.648438 135.648438 38.257812 134.484375 38.925781 C 133.324219 39.597656 132.199219 40.328125 131.113281 41.117188 C 130.027344 41.902344 128.984375 42.746094 127.984375 43.644531 C 126.988281 44.542969 126.039062 45.492188 125.140625 46.488281 C 123.914062 47.769531 122.625 48.988281 121.277344 50.140625 C 119.929688 51.292969 118.523438 52.375 117.066406 53.386719 C 115.609375 54.394531 114.101562 55.332031 112.550781 56.1875 C 110.996094 57.046875 109.40625 57.824219 107.773438 58.523438 C 106.144531 59.21875 104.480469 59.835938 102.785156 60.363281 C 101.09375 60.894531 99.378906 61.335938 97.640625 61.691406 C 95.902344 62.046875 94.148438 62.316406 92.382812 62.492188 C 90.621094 62.671875 88.851562 62.761719 87.074219 62.761719 C 85.300781 62.761719 83.53125 62.671875 81.765625 62.496094 C 80 62.316406 78.25 62.046875 76.511719 61.691406 C 74.773438 61.335938 73.058594 60.894531 71.363281 60.363281 C 69.671875 59.835938 68.007812 59.21875 66.375 58.523438 C 64.746094 57.824219 63.152344 57.046875 61.601562 56.1875 C 60.046875 55.332031 58.542969 54.394531 57.082031 53.386719 C 55.625 52.375 54.222656 51.292969 52.871094 50.140625 C 51.523438 48.988281 50.238281 47.769531 49.011719 46.488281 C 47.203125 44.496094 45.207031 42.714844 43.027344 41.136719 C 40.847656 39.5625 38.527344 38.226562 36.070312 37.132812 C 33.613281 36.039062 31.070312 35.210938 28.441406 34.644531 C 25.808594 34.078125 23.148438 33.789062 20.460938 33.777344 C 19.984375 33.777344 19.511719 33.730469 19.046875 33.636719 C 18.582031 33.546875 18.128906 33.40625 17.6875 33.226562 C 17.246094 33.042969 16.832031 32.820312 16.433594 32.554688 C 16.039062 32.292969 15.671875 31.992188 15.335938 31.65625 C 15 31.316406 14.699219 30.953125 14.433594 30.554688 C 14.171875 30.160156 13.949219 29.742188 13.765625 29.304688 C 13.582031 28.863281 13.445312 28.410156 13.355469 27.945312 C 13.261719 27.476562 13.214844 27.007812 13.214844 26.53125 C 13.214844 26.054688 13.261719 25.582031 13.355469 25.117188 C 13.445312 24.648438 13.582031 24.195312 13.765625 23.757812 C 13.949219 23.316406 14.171875 22.898438 14.433594 22.503906 C 14.699219 22.109375 15 21.742188 15.335938 21.40625 C 15.671875 21.070312 16.039062 20.769531 16.433594 20.503906 C 16.832031 20.242188 17.246094 20.019531 17.6875 19.835938 C 18.128906 19.652344 18.582031 19.515625 19.046875 19.421875 C 19.511719 19.332031 19.984375 19.285156 20.460938 19.285156 C 24.019531 19.277344 27.539062 19.632812 31.027344 20.34375 C 34.511719 21.054688 37.890625 22.109375 41.164062 23.511719 C 44.433594 24.910156 47.53125 26.621094 50.453125 28.652344 C 53.375 30.679688 56.0625 32.984375 58.519531 35.558594 C 59.417969 36.558594 60.363281 37.503906 61.363281 38.402344 C 62.359375 39.300781 63.402344 40.144531 64.488281 40.933594 C 65.574219 41.722656 66.695312 42.453125 67.859375 43.125 C 69.023438 43.792969 70.214844 44.402344 71.441406 44.949219 C 72.667969 45.496094 73.917969 45.976562 75.195312 46.390625 C 76.472656 46.804688 77.769531 47.152344 79.082031 47.429688 C 80.394531 47.710938 81.71875 47.917969 83.050781 48.058594 C 84.386719 48.199219 85.726562 48.269531 87.066406 48.269531 C 88.410156 48.269531 89.75 48.199219 91.082031 48.058594 C 92.417969 47.917969 93.742188 47.710938 95.054688 47.429688 C 96.367188 47.152344 97.664062 46.804688 98.941406 46.390625 C 100.214844 45.976562 101.46875 45.496094 102.695312 44.949219 C 103.921875 44.402344 105.113281 43.792969 106.277344 43.125 C 107.441406 42.453125 108.5625 41.722656 109.648438 40.933594 C 110.734375 40.144531 111.777344 39.300781 112.773438 38.402344 C 113.773438 37.503906 114.71875 36.558594 115.617188 35.558594 C 116.84375 34.277344 118.132812 33.058594 119.480469 31.90625 C 120.832031 30.753906 122.234375 29.675781 123.695312 28.664062 C 125.152344 27.652344 126.660156 26.71875 128.210938 25.859375 C 129.765625 25.003906 131.355469 24.226562 132.988281 23.527344 C 134.621094 22.832031 136.285156 22.21875 137.976562 21.6875 C 139.671875 21.160156 141.386719 20.714844 143.125 20.359375 C 144.863281 20.003906 146.613281 19.738281 148.378906 19.558594 C 150.144531 19.378906 151.914062 19.289062 153.691406 19.289062 C 155.464844 19.289062 157.234375 19.378906 159 19.558594 C 160.765625 19.738281 162.515625 20.003906 164.253906 20.359375 C 165.992188 20.714844 167.710938 21.160156 169.402344 21.6875 C 171.097656 22.21875 172.761719 22.832031 174.390625 23.527344 C 176.023438 24.226562 177.617188 25.003906 179.167969 25.859375 C 180.722656 26.71875 182.226562 27.652344 183.6875 28.664062 C 185.144531 29.675781 186.550781 30.753906 187.898438 31.90625 C 189.246094 33.058594 190.535156 34.277344 191.761719 35.558594 C 192.664062 36.558594 193.613281 37.507812 194.613281 38.40625 C 195.609375 39.304688 196.65625 40.148438 197.742188 40.9375 C 198.832031 41.726562 199.957031 42.457031 201.121094 43.128906 C 202.285156 43.796875 203.480469 44.40625 204.707031 44.953125 C 205.9375 45.5 207.191406 45.980469 208.46875 46.394531 C 209.746094 46.808594 211.042969 47.15625 212.359375 47.4375 C 213.671875 47.714844 215 47.925781 216.335938 48.066406 C 217.671875 48.207031 219.011719 48.277344 220.355469 48.277344 C 221.699219 48.277344 223.039062 48.207031 224.375 48.066406 C 225.714844 47.925781 227.039062 47.714844 228.355469 47.4375 C 229.667969 47.15625 230.964844 46.808594 232.242188 46.394531 C 233.519531 45.980469 234.773438 45.5 236.003906 44.953125 C 237.230469 44.40625 238.425781 43.796875 239.589844 43.128906 C 240.753906 42.457031 241.882812 41.726562 242.96875 40.9375 C 244.058594 40.148438 245.101562 39.304688 246.101562 38.40625 C 247.097656 37.507812 248.050781 36.558594 248.949219 35.558594 C 250.179688 34.277344 251.46875 33.058594 252.820312 31.90625 C 254.171875 30.753906 255.578125 29.671875 257.039062 28.664062 C 258.5 27.652344 260.007812 26.71875 261.5625 25.859375 C 263.117188 25.003906 264.710938 24.222656 266.34375 23.527344 C 267.976562 22.828125 269.640625 22.21875 271.335938 21.6875 C 273.03125 21.160156 274.75 20.714844 276.488281 20.359375 C 278.230469 20.003906 279.984375 19.738281 281.75 19.558594 C 283.515625 19.378906 285.289062 19.289062 287.066406 19.289062 C 288.839844 19.289062 290.613281 19.378906 292.378906 19.558594 C 294.144531 19.738281 295.898438 20.003906 297.640625 20.359375 C 299.378906 20.714844 301.097656 21.160156 302.792969 21.6875 C 304.488281 22.21875 306.152344 22.828125 307.785156 23.527344 C 309.417969 24.222656 311.015625 25.003906 312.570312 25.859375 C 314.125 26.71875 315.632812 27.652344 317.09375 28.664062 C 318.550781 29.671875 319.957031 30.753906 321.308594 31.90625 C 322.660156 33.058594 323.953125 34.277344 325.179688 35.558594 C 326.996094 37.550781 328.996094 39.335938 331.179688 40.910156 C 333.363281 42.488281 335.6875 43.824219 338.152344 44.917969 C 340.613281 46.011719 343.160156 46.839844 345.796875 47.40625 C 348.429688 47.96875 351.09375 48.257812 353.789062 48.269531 C 354.265625 48.269531 354.734375 48.316406 355.203125 48.410156 C 355.667969 48.503906 356.121094 48.640625 356.5625 48.820312 C 357 49.003906 357.417969 49.226562 357.8125 49.492188 C 358.210938 49.753906 358.574219 50.054688 358.914062 50.390625 C 359.25 50.730469 359.550781 51.09375 359.8125 51.492188 C 360.078125 51.886719 360.300781 52.304688 360.484375 52.742188 C 360.664062 53.183594 360.800781 53.636719 360.894531 54.101562 C 360.988281 54.570312 361.035156 55.039062 361.035156 55.515625 C 361.035156 55.992188 360.988281 56.464844 360.894531 56.929688 C 360.800781 57.398438 360.664062 57.851562 360.484375 58.289062 C 360.300781 58.730469 360.078125 59.148438 359.8125 59.542969 C 359.550781 59.9375 359.25 60.304688 358.914062 60.640625 C 358.574219 60.976562 358.210938 61.277344 357.8125 61.542969 C 357.417969 61.804688 357 62.027344 356.5625 62.210938 C 356.121094 62.394531 355.667969 62.53125 355.203125 62.625 C 354.734375 62.714844 354.265625 62.761719 353.789062 62.761719 Z M 353.789062 62.761719 "/>
</g>
<g clip-path="url(#clip2)" clip-rule="nonzero">
<path style=" stroke:none;fill-rule:nonzero;fill:rgb(56.469727%,64.309692%,68.238831%);fill-opacity:1;" d="M 353.789062 135.226562 C 350.226562 135.234375 346.699219 134.878906 343.210938 134.167969 C 339.71875 133.457031 336.335938 132.402344 333.058594 131.003906 C 329.785156 129.605469 326.683594 127.890625 323.753906 125.859375 C 320.828125 123.832031 318.132812 121.527344 315.671875 118.953125 C 314.773438 117.953125 313.824219 117.003906 312.824219 116.105469 C 311.824219 115.207031 310.777344 114.363281 309.691406 113.574219 C 308.601562 112.785156 307.476562 112.054688 306.3125 111.382812 C 305.148438 110.710938 303.949219 110.101562 302.722656 109.558594 C 301.496094 109.011719 300.242188 108.53125 298.960938 108.117188 C 297.683594 107.699219 296.386719 107.351562 295.070312 107.074219 C 293.757812 106.796875 292.429688 106.585938 291.09375 106.445312 C 289.757812 106.304688 288.417969 106.234375 287.070312 106.234375 C 285.726562 106.234375 284.386719 106.304688 283.050781 106.445312 C 281.714844 106.585938 280.386719 106.796875 279.074219 107.074219 C 277.757812 107.351562 276.460938 107.699219 275.183594 108.117188 C 273.902344 108.53125 272.648438 109.011719 271.421875 109.558594 C 270.195312 110.101562 268.996094 110.710938 267.832031 111.382812 C 266.667969 112.054688 265.542969 112.785156 264.453125 113.574219 C 263.367188 114.363281 262.320312 115.207031 261.320312 116.105469 C 260.320312 117.003906 259.371094 117.953125 258.472656 118.953125 C 257.242188 120.234375 255.953125 121.453125 254.601562 122.605469 C 253.25 123.757812 251.847656 124.839844 250.386719 125.851562 C 248.925781 126.859375 247.417969 127.796875 245.863281 128.652344 C 244.308594 129.511719 242.714844 130.289062 241.082031 130.988281 C 239.449219 131.683594 237.785156 132.296875 236.089844 132.828125 C 234.394531 133.359375 232.675781 133.800781 230.9375 134.15625 C 229.199219 134.511719 227.445312 134.78125 225.675781 134.957031 C 223.910156 135.136719 222.140625 135.226562 220.363281 135.226562 C 218.585938 135.226562 216.816406 135.136719 215.050781 134.957031 C 213.28125 134.78125 211.527344 134.511719 209.789062 134.15625 C 208.050781 133.800781 206.332031 133.359375 204.636719 132.828125 C 202.941406 132.296875 201.277344 131.683594 199.644531 130.988281 C 198.011719 130.289062 196.417969 129.511719 194.863281 128.652344 C 193.308594 127.796875 191.800781 126.859375 190.339844 125.851562 C 188.878906 124.839844 187.472656 123.757812 186.125 122.605469 C 184.773438 121.453125 183.484375 120.234375 182.253906 118.953125 C 181.355469 117.953125 180.40625 117.007812 179.410156 116.109375 C 178.410156 115.210938 177.371094 114.367188 176.28125 113.578125 C 175.195312 112.792969 174.070312 112.0625 172.910156 111.390625 C 171.746094 110.71875 170.550781 110.113281 169.324219 109.566406 C 168.097656 109.019531 166.847656 108.539062 165.570312 108.125 C 164.292969 107.710938 163 107.363281 161.6875 107.085938 C 160.371094 106.808594 159.046875 106.597656 157.714844 106.457031 C 156.378906 106.316406 155.039062 106.246094 153.699219 106.246094 C 152.355469 106.246094 151.015625 106.316406 149.679688 106.457031 C 148.347656 106.597656 147.023438 106.808594 145.710938 107.085938 C 144.394531 107.363281 143.101562 107.710938 141.824219 108.125 C 140.546875 108.539062 139.296875 109.019531 138.070312 109.566406 C 136.84375 110.113281 135.648438 110.71875 134.484375 111.390625 C 133.324219 112.0625 132.199219 112.792969 131.113281 113.578125 C 130.027344 114.367188 128.984375 115.210938 127.984375 116.109375 C 126.988281 117.007812 126.039062 117.953125 125.140625 118.953125 C 123.914062 120.234375 122.625 121.453125 121.277344 122.605469 C 119.929688 123.757812 118.523438 124.839844 117.066406 125.847656 C 115.609375 126.859375 114.101562 127.792969 112.550781 128.652344 C 110.996094 129.511719 109.40625 130.289062 107.773438 130.988281 C 106.144531 131.683594 104.480469 132.296875 102.785156 132.828125 C 101.09375 133.355469 99.378906 133.800781 97.640625 134.15625 C 95.902344 134.511719 94.148438 134.78125 92.382812 134.957031 C 90.621094 135.136719 88.851562 135.226562 87.074219 135.226562 C 85.300781 135.226562 83.53125 135.136719 81.765625 134.957031 C 80 134.78125 78.25 134.511719 76.511719 134.15625 C 74.773438 133.800781 73.058594 133.355469 71.363281 132.828125 C 69.671875 132.296875 68.007812 131.683594 66.375 130.988281 C 64.746094 130.289062 63.152344 129.511719 61.601562 128.652344 C 60.046875 127.792969 58.542969 126.859375 57.082031 125.847656 C 55.625 124.839844 54.222656 123.757812 52.871094 122.605469 C 51.523438 121.453125 50.238281 120.234375 49.011719 118.953125 C 47.203125 116.960938 45.207031 115.179688 43.027344 113.601562 C 40.847656 112.027344 38.527344 110.691406 36.070312 109.597656 C 33.613281 108.503906 31.070312 107.675781 28.441406 107.109375 C 25.808594 106.542969 23.148438 106.253906 20.460938 106.242188 C 19.984375 106.242188 19.511719 106.195312 19.046875 106.101562 C 18.582031 106.007812 18.128906 105.871094 17.6875 105.691406 C 17.246094 105.507812 16.832031 105.285156 16.433594 105.019531 C 16.039062 104.753906 15.671875 104.457031 15.335938 104.117188 C 15 103.78125 14.699219 103.417969 14.433594 103.019531 C 14.171875 102.625 13.949219 102.207031 13.765625 101.769531 C 13.582031 101.328125 13.445312 100.875 13.355469 100.410156 C 13.261719 99.941406 13.214844 99.46875 13.214844 98.996094 C 13.214844 98.519531 13.261719 98.046875 13.355469 97.582031 C 13.445312 97.113281 13.582031 96.660156 13.765625 96.222656 C 13.949219 95.78125 14.171875 95.363281 14.433594 94.96875 C 14.699219 94.574219 15 94.207031 15.335938 93.871094 C 15.671875 93.535156 16.039062 93.234375 16.433594 92.96875 C 16.832031 92.707031 17.246094 92.480469 17.6875 92.300781 C 18.128906 92.117188 18.582031 91.980469 19.046875 91.886719 C 19.511719 91.792969 19.984375 91.75 20.460938 91.75 C 24.019531 91.742188 27.539062 92.097656 31.027344 92.808594 C 34.511719 93.519531 37.890625 94.574219 41.164062 95.972656 C 44.433594 97.375 47.53125 99.085938 50.453125 101.117188 C 53.375 103.144531 56.0625 105.449219 58.519531 108.023438 C 59.417969 109.019531 60.363281 109.96875 61.363281 110.867188 C 62.359375 111.765625 63.402344 112.609375 64.488281 113.398438 C 65.574219 114.1875 66.695312 114.917969 67.859375 115.589844 C 69.023438 116.257812 70.214844 116.867188 71.441406 117.414062 C 72.667969 117.960938 73.917969 118.441406 75.195312 118.855469 C 76.472656 119.269531 77.769531 119.617188 79.082031 119.894531 C 80.394531 120.175781 81.71875 120.382812 83.050781 120.523438 C 84.386719 120.664062 85.726562 120.734375 87.066406 120.734375 C 88.410156 120.734375 89.75 120.664062 91.082031 120.523438 C 92.417969 120.382812 93.742188 120.175781 95.054688 119.894531 C 96.367188 119.617188 97.664062 119.269531 98.941406 118.855469 C 100.214844 118.441406 101.46875 117.960938 102.695312 117.414062 C 103.921875 116.867188 105.113281 116.257812 106.277344 115.589844 C 107.441406 114.917969 108.5625 114.1875 109.648438 113.398438 C 110.734375 112.609375 111.777344 111.765625 112.773438 110.867188 C 113.773438 109.96875 114.71875 109.019531 115.617188 108.023438 C 116.84375 106.742188 118.132812 105.523438 119.480469 104.371094 C 120.832031 103.21875 122.234375 102.136719 123.695312 101.128906 C 125.152344 100.117188 126.660156 99.183594 128.210938 98.324219 C 129.765625 97.46875 131.355469 96.6875 132.988281 95.992188 C 134.621094 95.292969 136.285156 94.679688 137.976562 94.152344 C 139.671875 93.621094 141.386719 93.179688 143.125 92.824219 C 144.863281 92.46875 146.613281 92.203125 148.378906 92.023438 C 150.144531 91.84375 151.914062 91.753906 153.691406 91.753906 C 155.464844 91.753906 157.234375 91.84375 159 92.023438 C 160.765625 92.203125 162.515625 92.46875 164.253906 92.824219 C 165.992188 93.179688 167.710938 93.621094 169.402344 94.152344 C 171.097656 94.679688 172.761719 95.292969 174.390625 95.992188 C 176.023438 96.6875 177.617188 97.46875 179.167969 98.324219 C 180.722656 99.183594 182.226562 100.117188 183.6875 101.128906 C 185.144531 102.136719 186.550781 103.21875 187.898438 104.371094 C 189.246094 105.523438 190.535156 106.742188 191.761719 108.023438 C 192.664062 109.023438 193.613281 109.96875 194.613281 110.867188 C 195.609375 111.765625 196.65625 112.609375 197.742188 113.402344 C 198.832031 114.191406 199.957031 114.921875 201.121094 115.589844 C 202.285156 116.261719 203.480469 116.871094 204.707031 117.417969 C 205.9375 117.964844 207.191406 118.445312 208.46875 118.859375 C 209.746094 119.273438 211.042969 119.621094 212.359375 119.902344 C 213.671875 120.179688 215 120.390625 216.335938 120.53125 C 217.671875 120.671875 219.011719 120.738281 220.355469 120.738281 C 221.699219 120.738281 223.039062 120.671875 224.375 120.53125 C 225.714844 120.390625 227.039062 120.179688 228.355469 119.902344 C 229.667969 119.621094 230.964844 119.273438 232.242188 118.859375 C 233.519531 118.445312 234.773438 117.964844 236.003906 117.417969 C 237.230469 116.871094 238.425781 116.261719 239.589844 115.589844 C 240.753906 114.921875 241.882812 114.191406 242.96875 113.402344 C 244.058594 112.609375 245.101562 111.765625 246.101562 110.867188 C 247.097656 109.96875 248.050781 109.023438 248.949219 108.023438 C 250.179688 106.742188 251.46875 105.523438 252.820312 104.371094 C 254.171875 103.21875 255.578125 102.136719 257.039062 101.128906 C 258.5 100.117188 260.007812 99.183594 261.5625 98.324219 C 263.117188 97.464844 264.710938 96.6875 266.34375 95.992188 C 267.976562 95.292969 269.640625 94.679688 271.335938 94.152344 C 273.03125 93.621094 274.75 93.179688 276.488281 92.824219 C 278.230469 92.46875 279.984375 92.199219 281.75 92.023438 C 283.515625 91.84375 285.289062 91.753906 287.066406 91.753906 C 288.839844 91.753906 290.613281 91.84375 292.378906 92.023438 C 294.144531 92.199219 295.898438 92.46875 297.640625 92.824219 C 299.378906 93.179688 301.097656 93.621094 302.792969 94.152344 C 304.488281 94.679688 306.152344 95.292969 307.785156 95.992188 C 309.417969 96.6875 311.015625 97.464844 312.570312 98.324219 C 314.125 99.183594 315.632812 100.117188 317.09375 101.128906 C 318.550781 102.136719 319.957031 103.21875 321.308594 104.371094 C 322.660156 105.523438 323.953125 106.742188 325.179688 108.023438 C 326.996094 110.015625 328.996094 111.800781 331.179688 113.375 C 333.363281 114.953125 335.6875 116.285156 338.152344 117.378906 C 340.613281 118.472656 343.160156 119.304688 345.796875 119.867188 C 348.429688 120.433594 351.09375 120.722656 353.789062 120.734375 C 354.265625 120.734375 354.734375 120.78125 355.203125 120.875 C 355.667969 120.964844 356.121094 121.105469 356.5625 121.285156 C 357 121.46875 357.417969 121.691406 357.8125 121.957031 C 358.210938 122.21875 358.574219 122.519531 358.914062 122.855469 C 359.25 123.191406 359.550781 123.558594 359.8125 123.953125 C 360.078125 124.351562 360.300781 124.769531 360.484375 125.207031 C 360.664062 125.648438 360.800781 126.101562 360.894531 126.566406 C 360.988281 127.035156 361.035156 127.503906 361.035156 127.980469 C 361.035156 128.457031 360.988281 128.925781 360.894531 129.394531 C 360.800781 129.859375 360.664062 130.3125 360.484375 130.753906 C 360.300781 131.191406 360.078125 131.609375 359.8125 132.007812 C 359.550781 132.402344 359.25 132.769531 358.914062 133.105469 C 358.574219 133.441406 358.210938 133.742188 357.8125 134.003906 C 357.417969 134.269531 357 134.492188 356.5625 134.675781 C 356.121094 134.859375 355.667969 134.996094 355.203125 135.085938 C 354.734375 135.179688 354.265625 135.226562 353.789062 135.226562 Z M 353.789062 135.226562 "/>
</g>
<g clip-path="url(#clip3)" clip-rule="nonzero">
<path style=" stroke:none;fill-rule:nonzero;fill:rgb(56.469727%,64.309692%,68.238831%);fill-opacity:1;" d="M 353.789062 207.691406 C 350.226562 207.695312 346.699219 207.34375 343.210938 206.632812 C 339.71875 205.921875 336.335938 204.867188 333.058594 203.46875 C 329.785156 202.070312 326.683594 200.355469 323.753906 198.324219 C 320.828125 196.296875 318.132812 193.992188 315.671875 191.414062 C 314.773438 190.417969 313.824219 189.46875 312.824219 188.570312 C 311.824219 187.671875 310.777344 186.828125 309.691406 186.039062 C 308.601562 185.25 307.476562 184.519531 306.3125 183.847656 C 305.148438 183.175781 303.949219 182.566406 302.722656 182.019531 C 301.496094 181.476562 300.242188 180.996094 298.960938 180.578125 C 297.683594 180.164062 296.386719 179.816406 295.070312 179.539062 C 293.757812 179.257812 292.429688 179.050781 291.09375 178.910156 C 289.757812 178.769531 288.417969 178.699219 287.070312 178.699219 C 285.726562 178.699219 284.386719 178.769531 283.050781 178.910156 C 281.714844 179.050781 280.386719 179.257812 279.074219 179.539062 C 277.757812 179.816406 276.460938 180.164062 275.183594 180.578125 C 273.902344 180.996094 272.648438 181.476562 271.421875 182.019531 C 270.195312 182.566406 268.996094 183.175781 267.832031 183.847656 C 266.667969 184.519531 265.542969 185.25 264.453125 186.039062 C 263.367188 186.828125 262.320312 187.671875 261.320312 188.570312 C 260.320312 189.46875 259.371094 190.417969 258.472656 191.414062 C 257.242188 192.699219 255.953125 193.917969 254.601562 195.070312 C 253.25 196.222656 251.847656 197.304688 250.386719 198.3125 C 248.925781 199.324219 247.417969 200.257812 245.863281 201.117188 C 244.308594 201.976562 242.714844 202.753906 241.082031 203.453125 C 239.449219 204.148438 237.785156 204.761719 236.089844 205.292969 C 234.394531 205.820312 232.675781 206.265625 230.9375 206.621094 C 229.199219 206.976562 227.445312 207.242188 225.675781 207.421875 C 223.910156 207.601562 222.140625 207.691406 220.363281 207.691406 C 218.585938 207.691406 216.816406 207.601562 215.050781 207.421875 C 213.28125 207.242188 211.527344 206.976562 209.789062 206.621094 C 208.050781 206.265625 206.332031 205.820312 204.636719 205.292969 C 202.941406 204.761719 201.277344 204.148438 199.644531 203.453125 C 198.011719 202.753906 196.417969 201.976562 194.863281 201.117188 C 193.308594 200.257812 191.800781 199.324219 190.339844 198.3125 C 188.878906 197.304688 187.472656 196.222656 186.125 195.070312 C 184.773438 193.917969 183.484375 192.699219 182.253906 191.414062 C 181.355469 190.417969 180.40625 189.472656 179.410156 188.574219 C 178.410156 187.675781 177.371094 186.832031 176.28125 186.042969 C 175.195312 185.253906 174.070312 184.527344 172.910156 183.855469 C 171.746094 183.183594 170.550781 182.574219 169.324219 182.03125 C 168.097656 181.484375 166.847656 181.003906 165.570312 180.589844 C 164.292969 180.175781 163 179.828125 161.6875 179.550781 C 160.371094 179.269531 159.046875 179.0625 157.714844 178.921875 C 156.378906 178.78125 155.039062 178.710938 153.699219 178.710938 C 152.355469 178.710938 151.015625 178.78125 149.679688 178.921875 C 148.347656 179.0625 147.023438 179.269531 145.710938 179.550781 C 144.394531 179.828125 143.101562 180.175781 141.824219 180.589844 C 140.546875 181.003906 139.296875 181.484375 138.070312 182.03125 C 136.84375 182.574219 135.648438 183.183594 134.484375 183.855469 C 133.324219 184.527344 132.199219 185.253906 131.113281 186.042969 C 130.027344 186.832031 128.984375 187.675781 127.984375 188.574219 C 126.988281 189.472656 126.039062 190.417969 125.140625 191.414062 C 123.914062 192.699219 122.625 193.917969 121.277344 195.070312 C 119.929688 196.222656 118.523438 197.304688 117.066406 198.3125 C 115.609375 199.324219 114.101562 200.257812 112.550781 201.117188 C 110.996094 201.976562 109.40625 202.753906 107.773438 203.453125 C 106.144531 204.148438 104.480469 204.761719 102.785156 205.292969 C 101.09375 205.820312 99.378906 206.265625 97.640625 206.621094 C 95.902344 206.976562 94.148438 207.242188 92.382812 207.421875 C 90.621094 207.601562 88.851562 207.691406 87.074219 207.691406 C 85.300781 207.691406 83.53125 207.601562 81.765625 207.421875 C 80 207.242188 78.25 206.976562 76.511719 206.621094 C 74.773438 206.265625 73.058594 205.820312 71.363281 205.292969 C 69.671875 204.761719 68.007812 204.148438 66.375 203.453125 C 64.746094 202.753906 63.152344 201.976562 61.601562 201.117188 C 60.046875 200.257812 58.542969 199.324219 57.082031 198.3125 C 55.625 197.304688 54.222656 196.222656 52.871094 195.070312 C 51.523438 193.917969 50.238281 192.699219 49.011719 191.414062 C 47.203125 189.425781 45.207031 187.644531 43.027344 186.066406 C 40.847656 184.492188 38.527344 183.15625 36.070312 182.0625 C 33.613281 180.96875 31.070312 180.136719 28.441406 179.574219 C 25.808594 179.007812 23.148438 178.71875 20.460938 178.707031 C 19.984375 178.707031 19.511719 178.660156 19.046875 178.566406 C 18.582031 178.472656 18.128906 178.335938 17.6875 178.152344 C 17.246094 177.972656 16.832031 177.75 16.433594 177.484375 C 16.039062 177.21875 15.671875 176.917969 15.335938 176.582031 C 15 176.246094 14.699219 175.878906 14.433594 175.484375 C 14.171875 175.089844 13.949219 174.671875 13.765625 174.230469 C 13.582031 173.792969 13.445312 173.339844 13.355469 172.871094 C 13.261719 172.40625 13.214844 171.933594 13.214844 171.460938 C 13.214844 170.984375 13.261719 170.511719 13.355469 170.046875 C 13.445312 169.578125 13.582031 169.125 13.765625 168.6875 C 13.949219 168.246094 14.171875 167.828125 14.433594 167.433594 C 14.699219 167.039062 15 166.671875 15.335938 166.335938 C 15.671875 166 16.039062 165.699219 16.433594 165.433594 C 16.832031 165.167969 17.246094 164.945312 17.6875 164.765625 C 18.128906 164.582031 18.582031 164.445312 19.046875 164.351562 C 19.511719 164.257812 19.984375 164.210938 20.460938 164.210938 C 24.019531 164.207031 27.539062 164.5625 31.027344 165.273438 C 34.511719 165.984375 37.890625 167.039062 41.164062 168.4375 C 44.433594 169.835938 47.53125 171.550781 50.453125 173.582031 C 53.375 175.609375 56.0625 177.914062 58.519531 180.488281 C 59.417969 181.484375 60.363281 182.433594 61.363281 183.332031 C 62.359375 184.230469 63.402344 185.074219 64.488281 185.863281 C 65.574219 186.652344 66.695312 187.382812 67.859375 188.050781 C 69.023438 188.722656 70.214844 189.332031 71.441406 189.878906 C 72.667969 190.421875 73.917969 190.902344 75.195312 191.320312 C 76.472656 191.734375 77.769531 192.082031 79.082031 192.359375 C 80.394531 192.636719 81.71875 192.847656 83.050781 192.988281 C 84.386719 193.128906 85.726562 193.199219 87.066406 193.199219 C 88.410156 193.199219 89.75 193.128906 91.082031 192.988281 C 92.417969 192.847656 93.742188 192.636719 95.054688 192.359375 C 96.367188 192.082031 97.664062 191.734375 98.941406 191.320312 C 100.214844 190.902344 101.46875 190.421875 102.695312 189.878906 C 103.921875 189.332031 105.113281 188.722656 106.277344 188.050781 C 107.441406 187.382812 108.5625 186.652344 109.648438 185.863281 C 110.734375 185.074219 111.777344 184.230469 112.773438 183.332031 C 113.773438 182.433594 114.71875 181.484375 115.617188 180.488281 C 116.84375 179.207031 118.132812 177.988281 119.480469 176.835938 C 120.832031 175.683594 122.234375 174.601562 123.695312 173.59375 C 125.152344 172.582031 126.660156 171.648438 128.210938 170.789062 C 129.765625 169.929688 131.355469 169.152344 132.988281 168.457031 C 134.621094 167.757812 136.285156 167.144531 137.976562 166.617188 C 139.671875 166.085938 141.386719 165.644531 143.125 165.289062 C 144.863281 164.933594 146.613281 164.664062 148.378906 164.488281 C 150.144531 164.308594 151.914062 164.21875 153.691406 164.21875 C 155.464844 164.21875 157.234375 164.308594 159 164.488281 C 160.765625 164.664062 162.515625 164.933594 164.253906 165.289062 C 165.992188 165.644531 167.710938 166.085938 169.402344 166.617188 C 171.097656 167.144531 172.761719 167.757812 174.390625 168.457031 C 176.023438 169.152344 177.617188 169.929688 179.167969 170.789062 C 180.722656 171.648438 182.226562 172.582031 183.6875 173.59375 C 185.144531 174.601562 186.550781 175.683594 187.898438 176.835938 C 189.246094 177.988281 190.535156 179.207031 191.761719 180.488281 C 192.664062 181.484375 193.613281 182.433594 194.613281 183.332031 C 195.609375 184.230469 196.65625 185.074219 197.742188 185.863281 C 198.832031 186.652344 199.957031 187.382812 201.121094 188.054688 C 202.285156 188.726562 203.480469 189.335938 204.707031 189.882812 C 205.9375 190.429688 207.191406 190.910156 208.46875 191.324219 C 209.746094 191.738281 211.042969 192.085938 212.359375 192.363281 C 213.671875 192.644531 215 192.851562 216.335938 192.992188 C 217.671875 193.132812 219.011719 193.203125 220.355469 193.203125 C 221.699219 193.203125 223.039062 193.132812 224.375 192.992188 C 225.714844 192.851562 227.039062 192.644531 228.355469 192.363281 C 229.667969 192.085938 230.964844 191.738281 232.242188 191.324219 C 233.519531 190.910156 234.773438 190.429688 236.003906 189.882812 C 237.230469 189.335938 238.425781 188.726562 239.589844 188.054688 C 240.753906 187.382812 241.882812 186.652344 242.96875 185.863281 C 244.058594 185.074219 245.101562 184.230469 246.101562 183.332031 C 247.097656 182.433594 248.050781 181.484375 248.949219 180.488281 C 250.179688 179.207031 251.46875 177.988281 252.820312 176.835938 C 254.171875 175.683594 255.578125 174.601562 257.039062 173.589844 C 258.5 172.582031 260.007812 171.648438 261.5625 170.789062 C 263.117188 169.929688 264.710938 169.152344 266.34375 168.457031 C 267.976562 167.757812 269.640625 167.144531 271.335938 166.617188 C 273.03125 166.085938 274.75 165.644531 276.488281 165.289062 C 278.230469 164.933594 279.984375 164.664062 281.75 164.488281 C 283.515625 164.308594 285.289062 164.21875 287.066406 164.21875 C 288.839844 164.21875 290.613281 164.308594 292.378906 164.488281 C 294.144531 164.664062 295.898438 164.933594 297.640625 165.289062 C 299.378906 165.644531 301.097656 166.085938 302.792969 166.617188 C 304.488281 167.144531 306.152344 167.757812 307.785156 168.457031 C 309.417969 169.152344 311.015625 169.929688 312.570312 170.789062 C 314.125 171.648438 315.632812 172.582031 317.09375 173.589844 C 318.550781 174.601562 319.957031 175.683594 321.308594 176.835938 C 322.660156 177.988281 323.953125 179.207031 325.179688 180.488281 C 326.996094 182.480469 328.996094 184.261719 331.179688 185.839844 C 333.363281 187.414062 335.6875 188.75 338.152344 189.84375 C 340.613281 190.9375 343.160156 191.769531 345.796875 192.332031 C 348.429688 192.898438 351.09375 193.1875 353.789062 193.199219 C 354.265625 193.199219 354.734375 193.246094 355.203125 193.335938 C 355.667969 193.429688 356.121094 193.566406 356.5625 193.75 C 357 193.933594 357.417969 194.15625 357.8125 194.417969 C 358.210938 194.683594 358.574219 194.984375 358.914062 195.320312 C 359.25 195.65625 359.550781 196.023438 359.8125 196.417969 C 360.078125 196.8125 360.300781 197.230469 360.484375 197.671875 C 360.664062 198.109375 360.800781 198.5625 360.894531 199.03125 C 360.988281 199.496094 361.035156 199.96875 361.035156 200.445312 C 361.035156 200.921875 360.988281 201.390625 360.894531 201.859375 C 360.800781 202.324219 360.664062 202.777344 360.484375 203.21875 C 360.300781 203.65625 360.078125 204.074219 359.8125 204.46875 C 359.550781 204.867188 359.25 205.230469 358.914062 205.570312 C 358.574219 205.90625 358.210938 206.207031 357.8125 206.46875 C 357.417969 206.734375 357 206.957031 356.5625 207.140625 C 356.121094 207.320312 355.667969 207.460938 355.203125 207.550781 C 354.734375 207.644531 354.265625 207.691406 353.789062 207.691406 Z M 353.789062 207.691406 "/>
</g>
<g clip-path="url(#clip4)" clip-rule="nonzero">
<path style=" stroke:none;fill-rule:nonzero;fill:rgb(56.469727%,64.309692%,68.238831%);fill-opacity:1;" d="M 353.789062 280.15625 C 350.226562 280.160156 346.699219 279.808594 343.210938 279.097656 C 339.71875 278.386719 336.335938 277.332031 333.058594 275.933594 C 329.785156 274.53125 326.683594 272.820312 323.753906 270.789062 C 320.828125 268.761719 318.132812 266.457031 315.671875 263.878906 C 314.773438 262.882812 313.824219 261.933594 312.824219 261.035156 C 311.824219 260.136719 310.777344 259.292969 309.691406 258.503906 C 308.601562 257.714844 307.476562 256.984375 306.3125 256.3125 C 305.148438 255.640625 303.949219 255.03125 302.722656 254.484375 C 301.496094 253.9375 300.242188 253.457031 298.960938 253.042969 C 297.683594 252.628906 296.386719 252.28125 295.070312 252.003906 C 293.757812 251.722656 292.429688 251.515625 291.09375 251.375 C 289.757812 251.234375 288.417969 251.164062 287.070312 251.164062 C 285.726562 251.164062 284.386719 251.234375 283.050781 251.375 C 281.714844 251.515625 280.386719 251.722656 279.074219 252.003906 C 277.757812 252.28125 276.460938 252.628906 275.183594 253.042969 C 273.902344 253.457031 272.648438 253.9375 271.421875 254.484375 C 270.195312 255.03125 268.996094 255.640625 267.832031 256.3125 C 266.667969 256.984375 265.542969 257.714844 264.453125 258.503906 C 263.367188 259.292969 262.320312 260.136719 261.320312 261.035156 C 260.320312 261.933594 259.371094 262.882812 258.472656 263.878906 C 257.242188 265.164062 255.953125 266.378906 254.601562 267.535156 C 253.25 268.6875 251.847656 269.769531 250.386719 270.777344 C 248.925781 271.789062 247.417969 272.722656 245.863281 273.582031 C 244.308594 274.441406 242.714844 275.21875 241.082031 275.917969 C 239.449219 276.613281 237.785156 277.226562 236.089844 277.757812 C 234.394531 278.285156 232.675781 278.730469 230.9375 279.085938 C 229.199219 279.441406 227.445312 279.707031 225.675781 279.886719 C 223.910156 280.066406 222.140625 280.15625 220.363281 280.15625 C 218.585938 280.15625 216.816406 280.066406 215.050781 279.886719 C 213.28125 279.707031 211.527344 279.441406 209.789062 279.085938 C 208.050781 278.730469 206.332031 278.285156 204.636719 277.757812 C 202.941406 277.226562 201.277344 276.613281 199.644531 275.917969 C 198.011719 275.21875 196.417969 274.441406 194.863281 273.582031 C 193.308594 272.722656 191.800781 271.789062 190.339844 270.777344 C 188.878906 269.769531 187.472656 268.6875 186.125 267.535156 C 184.773438 266.378906 183.484375 265.164062 182.253906 263.878906 C 181.355469 262.882812 180.40625 261.933594 179.410156 261.039062 C 178.410156 260.140625 177.371094 259.296875 176.28125 258.507812 C 175.195312 257.71875 174.070312 256.988281 172.910156 256.320312 C 171.746094 255.648438 170.550781 255.039062 169.324219 254.496094 C 168.097656 253.949219 166.847656 253.46875 165.570312 253.054688 C 164.292969 252.640625 163 252.292969 161.6875 252.015625 C 160.371094 251.734375 159.046875 251.527344 157.714844 251.386719 C 156.378906 251.246094 155.039062 251.175781 153.699219 251.175781 C 152.355469 251.175781 151.015625 251.246094 149.679688 251.386719 C 148.347656 251.527344 147.023438 251.734375 145.710938 252.015625 C 144.394531 252.292969 143.101562 252.640625 141.824219 253.054688 C 140.546875 253.46875 139.296875 253.949219 138.070312 254.496094 C 136.84375 255.039062 135.648438 255.648438 134.484375 256.320312 C 133.324219 256.988281 132.199219 257.71875 131.113281 258.507812 C 130.027344 259.296875 128.984375 260.140625 127.984375 261.039062 C 126.988281 261.933594 126.039062 262.882812 125.140625 263.878906 C 123.914062 265.164062 122.625 266.378906 121.277344 267.53125 C 119.929688 268.683594 118.523438 269.765625 117.066406 270.777344 C 115.609375 271.789062 114.101562 272.722656 112.550781 273.582031 C 110.996094 274.441406 109.40625 275.21875 107.773438 275.914062 C 106.144531 276.613281 104.480469 277.226562 102.785156 277.757812 C 101.09375 278.285156 99.378906 278.726562 97.640625 279.085938 C 95.902344 279.441406 94.148438 279.707031 92.382812 279.886719 C 90.621094 280.066406 88.851562 280.15625 87.074219 280.15625 C 85.300781 280.15625 83.53125 280.066406 81.765625 279.886719 C 80 279.707031 78.25 279.441406 76.511719 279.085938 C 74.773438 278.726562 73.058594 278.285156 71.363281 277.757812 C 69.671875 277.226562 68.007812 276.613281 66.375 275.914062 C 64.746094 275.21875 63.152344 274.441406 61.601562 273.582031 C 60.046875 272.722656 58.542969 271.789062 57.082031 270.777344 C 55.625 269.765625 54.222656 268.683594 52.871094 267.53125 C 51.523438 266.378906 50.238281 265.164062 49.011719 263.878906 C 47.203125 261.890625 45.207031 260.105469 43.027344 258.53125 C 40.847656 256.957031 38.527344 255.621094 36.070312 254.527344 C 33.613281 253.433594 31.070312 252.601562 28.441406 252.039062 C 25.808594 251.472656 23.148438 251.183594 20.460938 251.167969 C 19.984375 251.167969 19.511719 251.125 19.046875 251.03125 C 18.582031 250.9375 18.128906 250.800781 17.6875 250.617188 C 17.246094 250.4375 16.832031 250.210938 16.433594 249.949219 C 16.039062 249.683594 15.671875 249.382812 15.335938 249.046875 C 15 248.710938 14.699219 248.34375 14.433594 247.949219 C 14.171875 247.554688 13.949219 247.136719 13.765625 246.695312 C 13.582031 246.257812 13.445312 245.804688 13.355469 245.335938 C 13.261719 244.871094 13.214844 244.398438 13.214844 243.921875 C 13.214844 243.449219 13.261719 242.976562 13.355469 242.507812 C 13.445312 242.042969 13.582031 241.589844 13.765625 241.148438 C 13.949219 240.710938 14.171875 240.292969 14.433594 239.898438 C 14.699219 239.5 15 239.136719 15.335938 238.800781 C 15.671875 238.460938 16.039062 238.164062 16.433594 237.898438 C 16.832031 237.632812 17.246094 237.410156 17.6875 237.226562 C 18.128906 237.046875 18.582031 236.910156 19.046875 236.816406 C 19.511719 236.722656 19.984375 236.675781 20.460938 236.675781 C 24.019531 236.671875 27.539062 237.023438 31.027344 237.738281 C 34.511719 238.449219 37.890625 239.503906 41.160156 240.902344 C 44.433594 242.300781 47.53125 244.015625 50.453125 246.042969 C 53.375 248.074219 56.0625 250.375 58.519531 252.953125 C 59.417969 253.949219 60.363281 254.898438 61.363281 255.796875 C 62.359375 256.695312 63.402344 257.539062 64.488281 258.328125 C 65.574219 259.117188 66.695312 259.84375 67.859375 260.515625 C 69.023438 261.1875 70.214844 261.796875 71.441406 262.34375 C 72.667969 262.886719 73.917969 263.367188 75.195312 263.78125 C 76.472656 264.199219 77.769531 264.542969 79.082031 264.824219 C 80.394531 265.101562 81.71875 265.3125 83.050781 265.453125 C 84.386719 265.59375 85.726562 265.664062 87.066406 265.664062 C 88.410156 265.664062 89.75 265.59375 91.082031 265.453125 C 92.417969 265.3125 93.742188 265.101562 95.054688 264.824219 C 96.367188 264.542969 97.664062 264.199219 98.941406 263.78125 C 100.214844 263.367188 101.46875 262.886719 102.695312 262.34375 C 103.921875 261.796875 105.113281 261.1875 106.277344 260.515625 C 107.441406 259.84375 108.5625 259.117188 109.648438 258.328125 C 110.734375 257.539062 111.777344 256.695312 112.773438 255.796875 C 113.773438 254.898438 114.71875 253.949219 115.617188 252.953125 C 116.84375 251.671875 118.132812 250.453125 119.480469 249.300781 C 120.832031 248.148438 122.234375 247.066406 123.695312 246.054688 C 125.152344 245.046875 126.660156 244.113281 128.210938 243.253906 C 129.765625 242.394531 131.355469 241.617188 132.988281 240.921875 C 134.621094 240.222656 136.285156 239.609375 137.976562 239.082031 C 139.671875 238.550781 141.386719 238.109375 143.125 237.753906 C 144.863281 237.398438 146.613281 237.128906 148.378906 236.949219 C 150.144531 236.773438 151.914062 236.683594 153.691406 236.683594 C 155.464844 236.683594 157.234375 236.773438 159 236.949219 C 160.765625 237.128906 162.515625 237.398438 164.253906 237.753906 C 165.992188 238.109375 167.710938 238.550781 169.402344 239.082031 C 171.097656 239.609375 172.761719 240.222656 174.390625 240.921875 C 176.023438 241.617188 177.617188 242.394531 179.167969 243.253906 C 180.722656 244.113281 182.226562 245.046875 183.6875 246.054688 C 185.144531 247.066406 186.550781 248.148438 187.898438 249.300781 C 189.246094 250.453125 190.535156 251.671875 191.761719 252.953125 C 192.664062 253.949219 193.613281 254.898438 194.613281 255.796875 C 195.609375 256.695312 196.65625 257.539062 197.742188 258.328125 C 198.832031 259.117188 199.957031 259.847656 201.121094 260.519531 C 202.285156 261.191406 203.480469 261.800781 204.707031 262.347656 C 205.9375 262.890625 207.191406 263.371094 208.46875 263.789062 C 209.746094 264.203125 211.042969 264.550781 212.359375 264.828125 C 213.671875 265.109375 215 265.316406 216.335938 265.457031 C 217.671875 265.597656 219.011719 265.667969 220.355469 265.667969 C 221.699219 265.667969 223.039062 265.597656 224.375 265.457031 C 225.714844 265.316406 227.039062 265.109375 228.355469 264.828125 C 229.667969 264.550781 230.964844 264.203125 232.242188 263.789062 C 233.519531 263.371094 234.773438 262.890625 236.003906 262.347656 C 237.230469 261.800781 238.425781 261.191406 239.589844 260.519531 C 240.753906 259.847656 241.882812 259.117188 242.96875 258.328125 C 244.058594 257.539062 245.101562 256.695312 246.101562 255.796875 C 247.097656 254.898438 248.050781 253.949219 248.949219 252.953125 C 250.179688 251.667969 251.46875 250.453125 252.820312 249.300781 C 254.171875 248.148438 255.578125 247.066406 257.039062 246.054688 C 258.5 245.046875 260.007812 244.113281 261.5625 243.253906 C 263.117188 242.394531 264.710938 241.617188 266.34375 240.921875 C 267.976562 240.222656 269.640625 239.609375 271.335938 239.082031 C 273.03125 238.550781 274.75 238.109375 276.488281 237.753906 C 278.230469 237.398438 279.984375 237.128906 281.75 236.949219 C 283.515625 236.773438 285.289062 236.683594 287.066406 236.683594 C 288.839844 236.683594 290.613281 236.773438 292.378906 236.949219 C 294.144531 237.128906 295.898438 237.398438 297.640625 237.753906 C 299.378906 238.109375 301.097656 238.550781 302.792969 239.082031 C 304.488281 239.609375 306.152344 240.222656 307.785156 240.921875 C 309.417969 241.617188 311.015625 242.394531 312.570312 243.253906 C 314.125 244.109375 315.632812 245.046875 317.09375 246.054688 C 318.550781 247.066406 319.957031 248.148438 321.308594 249.300781 C 322.660156 250.453125 323.953125 251.667969 325.179688 252.953125 C 326.996094 254.945312 328.996094 256.726562 331.179688 258.304688 C 333.363281 259.878906 335.6875 261.214844 338.152344 262.308594 C 340.613281 263.402344 343.160156 264.230469 345.796875 264.796875 C 348.429688 265.363281 351.09375 265.652344 353.789062 265.664062 C 354.265625 265.664062 354.734375 265.707031 355.203125 265.800781 C 355.667969 265.894531 356.121094 266.03125 356.5625 266.214844 C 357 266.394531 357.417969 266.621094 357.8125 266.882812 C 358.210938 267.148438 358.574219 267.449219 358.914062 267.785156 C 359.25 268.121094 359.550781 268.488281 359.8125 268.882812 C 360.078125 269.277344 360.300781 269.695312 360.484375 270.136719 C 360.664062 270.574219 360.800781 271.027344 360.894531 271.496094 C 360.988281 271.960938 361.035156 272.433594 361.035156 272.910156 C 361.035156 273.382812 360.988281 273.855469 360.894531 274.324219 C 360.800781 274.789062 360.664062 275.242188 360.484375 275.683594 C 360.300781 276.121094 360.078125 276.539062 359.8125 276.933594 C 359.550781 277.332031 359.25 277.695312 358.914062 278.03125 C 358.574219 278.371094 358.210938 278.667969 357.8125 278.933594 C 357.417969 279.199219 357 279.421875 356.5625 279.605469 C 356.121094 279.785156 355.667969 279.921875 355.203125 280.015625 C 354.734375 280.109375 354.265625 280.15625 353.789062 280.15625 Z M 353.789062 280.15625 "/>
</g>
</g>
</svg>
