<?xml version="1.0" encoding="UTF-8"?>
<svg xmlns="http://www.w3.org/2000/svg" xmlns:xlink="http://www.w3.org/1999/xlink" width="375pt" height="299.999988pt" viewBox="0 0 375 299.999988" version="1.2">
<defs>
<clipPath id="clip1">
  <path d="M 30 95 L 317 95 L 317 288.300781 L 30 288.300781 Z M 30 95 "/>
</clipPath>
<clipPath id="clip2">
  <path d="M 251 11.597656 L 257 11.597656 L 257 26 L 251 26 Z M 251 11.597656 "/>
</clipPath>
</defs>
<g id="surface1">
<path style=" stroke:none;fill-rule:nonzero;fill:rgb(98.039246%,71.369934%,30.979919%);fill-opacity:1;" d="M 326.832031 110.742188 C 326.832031 154.515625 291.332031 190 247.546875 190 C 203.765625 190 168.265625 154.515625 168.265625 110.742188 C 168.265625 66.972656 203.765625 31.488281 247.546875 31.488281 C 291.332031 31.488281 326.832031 66.972656 326.832031 110.742188 "/>
<g clip-path="url(#clip1)" clip-rule="nonzero">
<path style=" stroke:none;fill-rule:nonzero;fill:rgb(81.568909%,94.119263%,97.648621%);fill-opacity:1;" d="M 279.773438 176.210938 C 279.066406 176.210938 278.367188 176.234375 277.667969 176.273438 C 279.347656 171.675781 280.261719 166.707031 280.261719 161.527344 C 280.261719 137.738281 260.972656 118.453125 237.175781 118.453125 C 228.832031 118.453125 221.050781 120.828125 214.453125 124.929688 C 206.535156 107.816406 189.21875 95.933594 169.113281 95.933594 C 150.351562 95.933594 134.015625 106.28125 125.480469 121.574219 C 120.503906 119.566406 115.070312 118.453125 109.378906 118.453125 C 85.578125 118.453125 66.289062 137.738281 66.289062 161.527344 C 66.289062 166.707031 67.203125 171.675781 68.878906 176.273438 C 68.183594 176.234375 67.484375 176.210938 66.777344 176.210938 C 46.5 176.210938 30.054688 192.648438 30.054688 212.921875 C 30.054688 233.195312 46.5 249.632812 66.777344 249.632812 C 69.9375 249.632812 73 249.230469 75.925781 248.484375 C 82.320312 262.171875 96.207031 271.660156 112.316406 271.660156 C 120.375 271.660156 127.878906 269.273438 134.167969 265.1875 C 139.722656 278.746094 153.046875 288.300781 168.613281 288.300781 C 185.34375 288.300781 199.492188 277.257812 204.179688 262.070312 C 211.542969 270.757812 222.53125 276.277344 234.8125 276.277344 C 252.496094 276.277344 267.5 264.84375 272.855469 248.972656 C 275.09375 249.402344 277.40625 249.632812 279.773438 249.632812 C 300.054688 249.632812 316.496094 233.195312 316.496094 212.921875 C 316.496094 192.648438 300.054688 176.210938 279.773438 176.210938 "/>
</g>
<path style=" stroke:none;fill-rule:nonzero;fill:rgb(98.039246%,71.369934%,30.979919%);fill-opacity:1;" d="M 169.4375 75.429688 C 169.027344 75.429688 168.613281 75.316406 168.242188 75.074219 L 158.96875 69 C 157.960938 68.339844 157.679688 66.988281 158.339844 65.976562 C 159.003906 64.96875 160.355469 64.6875 161.363281 65.347656 L 170.636719 71.417969 C 171.648438 72.082031 171.929688 73.433594 171.265625 74.441406 C 170.847656 75.082031 170.148438 75.429688 169.4375 75.429688 "/>
<path style=" stroke:none;fill-rule:nonzero;fill:rgb(98.039246%,71.369934%,30.979919%);fill-opacity:1;" d="M 190.21875 46.347656 C 189.554688 46.347656 188.898438 46.046875 188.46875 45.472656 L 182.71875 37.804688 C 181.992188 36.839844 182.1875 35.46875 183.152344 34.746094 C 184.121094 34.023438 185.488281 34.21875 186.210938 35.183594 L 191.964844 42.855469 C 192.6875 43.816406 192.492188 45.1875 191.527344 45.910156 C 191.132812 46.207031 190.671875 46.347656 190.21875 46.347656 "/>
<path style=" stroke:none;fill-rule:nonzero;fill:rgb(98.039246%,71.369934%,30.979919%);fill-opacity:1;" d="M 220.910156 30.371094 C 220.050781 30.371094 219.234375 29.859375 218.890625 29.019531 L 215.054688 19.753906 C 214.59375 18.636719 215.125 17.363281 216.238281 16.902344 C 217.347656 16.4375 218.628906 16.96875 219.09375 18.082031 L 222.925781 27.351562 C 223.386719 28.464844 222.859375 29.742188 221.742188 30.203125 C 221.46875 30.316406 221.1875 30.371094 220.910156 30.371094 "/>
<g clip-path="url(#clip2)" clip-rule="nonzero">
<path style=" stroke:none;fill-rule:nonzero;fill:rgb(98.039246%,71.369934%,30.979919%);fill-opacity:1;" d="M 253.515625 25.898438 C 253.492188 25.898438 253.46875 25.894531 253.445312 25.894531 C 252.238281 25.859375 251.292969 24.847656 251.332031 23.644531 L 251.652344 13.738281 C 251.6875 12.53125 252.726562 11.589844 253.90625 11.625 C 255.109375 11.664062 256.054688 12.671875 256.019531 13.878906 L 255.695312 23.785156 C 255.660156 24.964844 254.6875 25.898438 253.515625 25.898438 "/>
</g>
<path style=" stroke:none;fill-rule:nonzero;fill:rgb(98.039246%,71.369934%,30.979919%);fill-opacity:1;" d="M 285.484375 32.929688 C 285.226562 32.929688 284.964844 32.882812 284.703125 32.785156 C 283.578125 32.351562 283.011719 31.089844 283.445312 29.964844 L 287.597656 19.097656 C 288.03125 17.972656 289.285156 17.410156 290.417969 17.839844 C 291.546875 18.269531 292.105469 19.53125 291.679688 20.65625 L 287.527344 31.523438 C 287.195312 32.394531 286.363281 32.929688 285.484375 32.929688 "/>
<path style=" stroke:none;fill-rule:nonzero;fill:rgb(98.039246%,71.369934%,30.979919%);fill-opacity:1;" d="M 313.617188 52.101562 C 313.074219 52.101562 312.527344 51.898438 312.105469 51.492188 C 311.234375 50.65625 311.203125 49.277344 312.039062 48.40625 L 319.394531 40.734375 C 320.230469 39.863281 321.609375 39.835938 322.480469 40.667969 C 323.355469 41.503906 323.382812 42.886719 322.546875 43.757812 L 315.191406 51.425781 C 314.765625 51.875 314.1875 52.101562 313.617188 52.101562 "/>
<path style=" stroke:none;fill-rule:nonzero;fill:rgb(98.039246%,71.369934%,30.979919%);fill-opacity:1;" d="M 329.917969 84.378906 C 328.933594 84.378906 328.039062 83.707031 327.796875 82.707031 C 327.515625 81.535156 328.234375 80.355469 329.40625 80.070312 L 338.671875 77.835938 C 339.847656 77.554688 341.027344 78.273438 341.3125 79.445312 C 341.59375 80.617188 340.871094 81.796875 339.699219 82.082031 L 330.433594 84.316406 C 330.257812 84.359375 330.085938 84.378906 329.917969 84.378906 "/>
<path style=" stroke:none;fill-rule:nonzero;fill:rgb(98.039246%,71.369934%,30.979919%);fill-opacity:1;" d="M 342.710938 122.726562 C 342.667969 122.726562 342.621094 122.726562 342.578125 122.722656 L 331.710938 122.085938 C 330.503906 122.015625 329.585938 120.980469 329.65625 119.773438 C 329.726562 118.570312 330.757812 117.652344 331.964844 117.726562 L 342.835938 118.363281 C 344.039062 118.433594 344.960938 119.46875 344.886719 120.671875 C 344.820312 121.832031 343.855469 122.726562 342.710938 122.726562 "/>
<path style=" stroke:none;fill-rule:nonzero;fill:rgb(98.039246%,71.369934%,30.979919%);fill-opacity:1;" d="M 337.910156 157.882812 C 337.609375 157.882812 337.308594 157.820312 337.019531 157.691406 L 324.867188 152.257812 C 323.765625 151.765625 323.273438 150.472656 323.765625 149.371094 C 324.257812 148.269531 325.554688 147.78125 326.652344 148.269531 L 338.800781 153.703125 C 339.902344 154.195312 340.394531 155.488281 339.90625 156.585938 C 339.539062 157.398438 338.742188 157.882812 337.910156 157.882812 "/>
<path style=" stroke:none;fill-rule:nonzero;fill:rgb(98.039246%,71.369934%,30.979919%);fill-opacity:1;" d="M 320.007812 183.445312 C 319.492188 183.445312 318.976562 183.265625 318.5625 182.898438 L 310.25 175.546875 C 309.347656 174.75 309.261719 173.367188 310.0625 172.464844 C 310.859375 171.5625 312.242188 171.476562 313.144531 172.277344 L 321.457031 179.628906 C 322.359375 180.425781 322.445312 181.804688 321.644531 182.710938 C 321.214844 183.195312 320.609375 183.445312 320.007812 183.445312 "/>
</g>
</svg>
